STARTFONT 2.1
FONT -FontForge-STAR 4-Book-R-Normal--32-310-75-75-P-149-ISO10646-1
SIZE 31 75 75
FONTBOUNDINGBOX 17 32 0 -7
COMMENT "Generated by fontforge, http://fontforge.sourceforge.net"
COMMENT "Typeface (c) (your company). 2006. All Rights Reserved"
STARTPROPERTIES 40
FOUNDRY "FontForge"
FAMILY_NAME "STAR 4"
WEIGHT_NAME "Book"
SLANT "R"
SETWIDTH_NAME "Normal"
ADD_STYLE_NAME ""
PIXEL_SIZE 32
POINT_SIZE 310
RESOLUTION_X 75
RESOLUTION_Y 75
SPACING "P"
AVERAGE_WIDTH 149
CHARSET_REGISTRY "ISO10646"
CHARSET_ENCODING "1"
FONTNAME_REGISTRY ""
CHARSET_COLLECTIONS "ASCII ISOLatin1Encoding ISO8859-2 ISO8859-5 ISO8859-7 ISO8859-9 ISO8859-4 Symbol ISO10646-1"
FONT_NAME "STAR4"
FACE_NAME "STAR 4"
COPYRIGHT "Typeface (c) (your company). 2006. All Rights Reserved"
FONT_VERSION "1.00 August 4, 2006, initial release"
FONT_ASCENT 26
FONT_DESCENT 6
UNDERLINE_POSITION -5
UNDERLINE_THICKNESS 3
X_HEIGHT 17
CAP_HEIGHT 22
RAW_ASCENT 799
RAW_DESCENT 200
NORM_SPACE 15
RELATIVE_WEIGHT 40
RELATIVE_SETWIDTH 50
SUPERSCRIPT_X 0
SUPERSCRIPT_Y 15
SUPERSCRIPT_SIZE 20
SUBSCRIPT_X 0
SUBSCRIPT_Y 4
SUBSCRIPT_SIZE 20
FIGURE_WIDTH 15
AVG_LOWERCASE_WIDTH 150
AVG_UPPERCASE_WIDTH 150
ENDPROPERTIES
CHARS 660
STARTCHAR space
ENCODING 32
SWIDTH 475 0
DWIDTH 15 0
BBX 1 1 0 0
BITMAP
00
ENDCHAR
STARTCHAR exclam
ENCODING 33
SWIDTH 475 0
DWIDTH 15 0
BBX 4 23 6 0
BITMAP
F0
F0
F0
F0
F0
F0
F0
70
70
70
70
60
60
60
60
60
00
00
F0
F0
F0
F0
F0
ENDCHAR
STARTCHAR quotedbl
ENCODING 34
SWIDTH 475 0
DWIDTH 15 0
BBX 7 7 5 16
BITMAP
CE
CE
CE
CE
CE
CE
CE
ENDCHAR
STARTCHAR numbersign
ENCODING 35
SWIDTH 475 0
DWIDTH 15 0
BBX 12 23 2 0
BITMAP
0E60
0C60
0CC0
0CC0
18C0
19C0
38C0
7FF0
7FF0
1980
3180
3380
7180
FFE0
FFE0
FFE0
6300
6700
7300
6300
6600
C600
C600
ENDCHAR
STARTCHAR dollar
ENCODING 36
SWIDTH 475 0
DWIDTH 15 0
BBX 13 25 1 -2
BITMAP
0200
0FC0
1FC0
3FE0
3B70
7370
7300
7300
3B00
3F00
3E00
0FE0
03F0
03F8
0338
0338
E338
7338
7338
7370
3FE0
3FE0
0780
0300
0300
ENDCHAR
STARTCHAR percent
ENCODING 37
SWIDTH 475 0
DWIDTH 15 0
BBX 14 23 1 0
BITMAP
0800
7F00
7F00
E380
C180
C180
C180
C180
FF1C
7F7C
01E0
0F80
3C00
F040
43F8
077C
061C
060C
060C
071C
07F8
03F8
0040
ENDCHAR
STARTCHAR ampersand
ENCODING 38
SWIDTH 475 0
DWIDTH 15 0
BBX 12 23 2 0
BITMAP
0400
1F00
1F80
1980
3380
3380
3180
1980
1F00
1E00
0E00
3E00
3F00
6760
E3E0
63E0
61E0
60E0
E0E0
71F0
7FF0
7F00
1E00
ENDCHAR
STARTCHAR quotesingle
ENCODING 39
SWIDTH 475 0
DWIDTH 15 0
BBX 2 7 7 16
BITMAP
C0
C0
C0
C0
C0
C0
C0
ENDCHAR
STARTCHAR parenleft
ENCODING 40
SWIDTH 475 0
DWIDTH 15 0
BBX 5 25 6 -2
BITMAP
38
70
70
70
E0
E0
E0
E0
E0
E0
E0
E0
E0
E0
E0
E0
E0
E0
E0
E0
E0
70
70
70
38
ENDCHAR
STARTCHAR parenright
ENCODING 41
SWIDTH 475 0
DWIDTH 15 0
BBX 6 25 6 -2
BITMAP
E0
E0
70
70
70
70
38
38
38
38
78
3C
3C
3C
78
38
38
38
38
70
70
70
E0
E0
E0
ENDCHAR
STARTCHAR asterisk
ENCODING 42
SWIDTH 475 0
DWIDTH 15 0
BBX 13 12 1 11
BITMAP
0300
0300
0300
4308
7FF8
FFF8
0FC0
0F80
0FC0
1CE0
38E0
1860
ENDCHAR
STARTCHAR plus
ENCODING 43
SWIDTH 475 0
DWIDTH 15 0
BBX 12 16 2 4
BITMAP
0E00
0E00
0E00
0E00
0E00
0E00
0E00
FFF0
FFF0
FFF0
0E00
0E00
0E00
0E00
0E00
0E00
ENDCHAR
STARTCHAR comma
ENCODING 44
SWIDTH 475 0
DWIDTH 15 0
BBX 5 9 6 -3
BITMAP
F0
F0
F0
F0
38
30
38
F0
F0
ENDCHAR
STARTCHAR hyphen
ENCODING 45
SWIDTH 475 0
DWIDTH 15 0
BBX 6 2 5 8
BITMAP
FC
FC
ENDCHAR
STARTCHAR period
ENCODING 46
SWIDTH 475 0
DWIDTH 15 0
BBX 4 5 6 0
BITMAP
F0
F0
F0
F0
F0
ENDCHAR
STARTCHAR slash
ENCODING 47
SWIDTH 475 0
DWIDTH 15 0
BBX 9 25 4 -2
BITMAP
0380
0380
0700
0700
0700
0700
0E00
0E00
0E00
0E00
1C00
1C00
1C00
3800
3800
3800
3800
7000
7000
7000
7000
E000
E000
E000
E000
ENDCHAR
STARTCHAR zero
ENCODING 48
SWIDTH 475 0
DWIDTH 15 0
BBX 13 23 1 0
BITMAP
0200
1FC0
3FE0
3CF0
3870
7038
7038
7038
7038
E038
E038
E038
E038
7038
7038
7038
7038
7038
7070
3870
3FF0
1FC0
0780
ENDCHAR
STARTCHAR one
ENCODING 49
SWIDTH 475 0
DWIDTH 15 0
BBX 8 23 4 0
BITMAP
07
07
0F
1F
FF
FF
FF
07
07
07
07
07
07
07
07
07
07
07
07
07
07
07
07
ENDCHAR
STARTCHAR two
ENCODING 50
SWIDTH 475 0
DWIDTH 15 0
BBX 13 23 1 0
BITMAP
0F00
1FC0
1FE0
3CF0
3870
7038
7038
7038
0038
0070
0070
00F0
03C0
0F80
1F00
1F00
3C00
3800
7000
7000
7FF8
7FF8
FFF0
ENDCHAR
STARTCHAR three
ENCODING 51
SWIDTH 475 0
DWIDTH 15 0
BBX 14 23 1 0
BITMAP
0E00
3FC0
3FF0
7C30
7038
7038
7038
0038
0070
07F0
07C0
07F0
01F8
0078
0038
E01C
E01C
E038
7038
7038
7FF0
3FF0
0F80
ENDCHAR
STARTCHAR four
ENCODING 52
SWIDTH 475 0
DWIDTH 15 0
BBX 12 23 2 0
BITMAP
01C0
03C0
03C0
07C0
07E0
0FC0
1FC0
1FC0
1DC0
39C0
39C0
71C0
E1C0
E1C0
FFF0
FFF0
FFF0
01C0
01C0
01C0
01C0
01C0
01C0
ENDCHAR
STARTCHAR five
ENCODING 53
SWIDTH 475 0
DWIDTH 15 0
BBX 13 23 1 0
BITMAP
3FF0
3FF0
3FF0
3800
3800
3800
7000
7080
7FC0
FFE0
F9F0
7038
0038
0038
0038
0038
7038
7038
7038
3870
3FE0
1FF0
0780
ENDCHAR
STARTCHAR six
ENCODING 54
SWIDTH 475 0
DWIDTH 15 0
BBX 14 23 1 0
BITMAP
0300
0FE0
1FE0
3CF0
3838
7030
7000
7000
7100
E7C0
FFF0
FFF0
783C
7038
701C
701C
701C
7038
7038
3838
3FF0
0FF0
0780
ENDCHAR
STARTCHAR seven
ENCODING 55
SWIDTH 475 0
DWIDTH 15 0
BBX 13 23 2 0
BITMAP
FFF8
FFF8
FFF8
0070
0070
00E0
01C0
01C0
0380
0380
0380
0700
0700
0E00
0E00
1E00
0E00
1C00
1C00
1E00
3C00
1C00
1C00
ENDCHAR
STARTCHAR eight
ENCODING 56
SWIDTH 475 0
DWIDTH 15 0
BBX 13 23 1 0
BITMAP
0200
1FC0
1FC0
3870
7070
7070
7070
7070
3870
1FE0
0FC0
3FE0
7FF0
7070
7038
E038
E038
7038
7070
7070
3FE0
3FE0
0F80
ENDCHAR
STARTCHAR nine
ENCODING 57
SWIDTH 475 0
DWIDTH 15 0
BBX 14 23 1 0
BITMAP
0300
1FE0
3FE0
7FF0
7870
7038
E038
E038
E038
703C
7078
7078
3FFC
3FF8
07B8
0038
0038
7038
3870
3870
3FE0
1FC0
1F00
ENDCHAR
STARTCHAR colon
ENCODING 58
SWIDTH 475 0
DWIDTH 15 0
BBX 4 18 6 0
BITMAP
F0
F0
F0
F0
F0
00
00
00
00
00
00
00
00
F0
F0
F0
F0
F0
ENDCHAR
STARTCHAR semicolon
ENCODING 59
SWIDTH 475 0
DWIDTH 15 0
BBX 5 21 6 -3
BITMAP
F0
F0
F0
F0
F0
00
00
00
00
00
00
00
F0
F0
F0
F0
30
30
30
78
78
ENDCHAR
STARTCHAR less
ENCODING 60
SWIDTH 475 0
DWIDTH 15 0
BBX 12 16 3 4
BITMAP
0010
0060
01E0
03E0
0F80
7E00
F800
F000
E000
F800
3E00
1F00
07C0
01F0
00E0
0020
ENDCHAR
STARTCHAR equal
ENCODING 61
SWIDTH 475 0
DWIDTH 15 0
BBX 12 8 2 8
BITMAP
FFF0
FFF0
0000
0000
0000
0000
FFF0
FFF0
ENDCHAR
STARTCHAR greater
ENCODING 62
SWIDTH 475 0
DWIDTH 15 0
BBX 13 16 2 4
BITMAP
8000
6000
F000
7C00
1F00
07C0
01F0
00F0
0078
03F0
07C0
1F00
3E00
7800
E000
8000
ENDCHAR
STARTCHAR question
ENCODING 63
SWIDTH 475 0
DWIDTH 15 0
BBX 13 23 1 0
BITMAP
0200
3FE0
7FF0
7E78
F038
E038
E038
0038
0078
00F0
01C0
03C0
0380
0700
0700
0700
0000
0000
0780
0780
0780
0780
0780
ENDCHAR
STARTCHAR at
ENCODING 64
SWIDTH 475 0
DWIDTH 15 0
BBX 14 23 1 0
BITMAP
01C0
1FE0
3FF0
3030
3030
6030
7030
E1F8
E7F8
6718
6C18
6C18
6C38
6C38
EC38
EFFC
77CC
6000
6000
3000
3C80
1FC0
0F80
ENDCHAR
STARTCHAR A
ENCODING 65
SWIDTH 475 0
DWIDTH 15 0
BBX 12 23 2 0
BITMAP
0400
0E00
0F00
0F00
0F00
1F00
1F80
3F80
3F80
39C0
39C0
71C0
71C0
71C0
7FE0
7FE0
70E0
E0E0
E0E0
E070
E070
E070
E070
ENDCHAR
STARTCHAR B
ENCODING 66
SWIDTH 475 0
DWIDTH 15 0
BBX 14 23 1 0
BITMAP
7F00
7FC0
7FE0
E1E0
E0F0
E070
E070
E070
E070
FFE0
FFE0
FFE0
E1F0
E038
E038
E078
E03C
E038
E070
E0F0
7FF0
7FE0
7F80
ENDCHAR
STARTCHAR C
ENCODING 67
SWIDTH 475 0
DWIDTH 15 0
BBX 14 23 1 0
BITMAP
0100
0FE0
1FE0
1EF0
3838
3838
7000
7000
7000
7000
E000
E000
E000
7000
701C
7038
7038
3838
3870
1C70
1FE0
0FC0
0380
ENDCHAR
STARTCHAR D
ENCODING 68
SWIDTH 475 0
DWIDTH 15 0
BBX 14 23 1 0
BITMAP
FE00
FFC0
FFE0
E1E0
E078
E070
E038
E03C
E038
E038
E038
E038
E038
E038
E038
E038
E038
E070
E070
E0F0
FFE0
7FC0
FE00
ENDCHAR
STARTCHAR E
ENCODING 69
SWIDTH 475 0
DWIDTH 15 0
BBX 11 22 2 1
BITMAP
FFE0
FFE0
FFE0
7000
7000
7000
7000
7000
7000
7000
FFC0
FFC0
7000
7000
7000
7000
7000
7000
7000
7000
FFE0
FFE0
ENDCHAR
STARTCHAR F
ENCODING 70
SWIDTH 475 0
DWIDTH 15 0
BBX 12 22 2 1
BITMAP
FFF0
FFF0
FFF0
7000
7000
7000
7000
7000
7000
7000
FFC0
FFC0
7000
7000
7000
7000
7000
7000
7000
7000
7000
7000
ENDCHAR
STARTCHAR G
ENCODING 71
SWIDTH 475 0
DWIDTH 15 0
BBX 14 23 1 0
BITMAP
0080
0FE0
1FE0
1CE0
3870
3838
7038
7038
7000
7000
E000
E1F8
E1F8
71F8
7038
7038
7038
7038
383C
387C
1FF0
0FE0
07C0
ENDCHAR
STARTCHAR H
ENCODING 72
SWIDTH 475 0
DWIDTH 15 0
BBX 12 23 2 0
BITMAP
E070
E070
E070
E070
E070
E070
E070
E070
E070
FFF0
FFF0
FFF0
E070
E070
E070
E070
E070
E070
E070
E070
E070
E070
E070
ENDCHAR
STARTCHAR I
ENCODING 73
SWIDTH 475 0
DWIDTH 15 0
BBX 9 23 4 0
BITMAP
FF80
FF80
FF80
1C00
1C00
1C00
1C00
1C00
1C00
1C00
1C00
1C00
1C00
1C00
1C00
1C00
1C00
1C00
1C00
1C00
FF80
FF80
FF80
ENDCHAR
STARTCHAR J
ENCODING 74
SWIDTH 475 0
DWIDTH 15 0
BBX 13 23 1 0
BITMAP
0038
0038
0038
0038
0038
0038
0038
0038
0038
0038
0038
0038
0038
0038
E038
E038
E038
7038
7038
7070
3FF0
3FE0
0FC0
ENDCHAR
STARTCHAR K
ENCODING 75
SWIDTH 475 0
DWIDTH 15 0
BBX 14 23 1 0
BITMAP
E03C
E078
E0F0
E0F0
E1E0
E1E0
E1C0
E3C0
E700
EF00
7F00
7F00
7F80
E380
E1C0
E1C0
E0E0
E0F0
E070
E078
E038
E03C
E01C
ENDCHAR
STARTCHAR L
ENCODING 76
SWIDTH 475 0
DWIDTH 15 0
BBX 11 23 2 0
BITMAP
E000
E000
E000
E000
E000
E000
E000
E000
E000
E000
E000
E000
E000
E000
E000
E000
E000
E000
E000
E000
FFE0
FFE0
FFE0
ENDCHAR
STARTCHAR M
ENCODING 77
SWIDTH 475 0
DWIDTH 15 0
BBX 14 23 1 0
BITMAP
7038
F03C
7878
7878
F87C
F87C
F8F8
FFF8
FFF8
E7B8
E3B8
E138
E038
E038
E038
E038
E038
E038
E038
E038
E038
E038
E038
ENDCHAR
STARTCHAR N
ENCODING 78
SWIDTH 475 0
DWIDTH 15 0
BBX 13 23 2 0
BITMAP
F070
F070
7870
7870
F870
F870
7C70
FC70
FC70
7E70
EE70
E670
E370
E370
E3F0
E3F0
E1F8
E1F0
E1F0
E0F8
E0F0
E0F0
E0F0
ENDCHAR
STARTCHAR O
ENCODING 79
SWIDTH 475 0
DWIDTH 15 0
BBX 14 23 1 0
BITMAP
0100
0FE0
1FF0
1EF0
3C38
3838
701C
701C
701C
701C
E01C
E01C
E01C
701C
701C
701C
701C
3838
3838
1C70
1FE0
0FE0
0780
ENDCHAR
STARTCHAR P
ENCODING 80
SWIDTH 475 0
DWIDTH 15 0
BBX 13 23 1 0
BITMAP
FE00
FFC0
7FE0
E1F0
E0F0
E070
E070
E070
E070
E078
E0F0
7FF0
FFC0
FFC0
E000
E000
E000
E000
E000
E000
E000
E000
E000
ENDCHAR
STARTCHAR Q
ENCODING 81
SWIDTH 475 0
DWIDTH 15 0
BBX 14 24 1 -1
BITMAP
0100
0FE0
1FF0
3CF0
3870
7038
7038
7038
701C
701C
E01C
E01C
E01C
701C
701C
70F8
71F8
70F8
3878
3878
1FFC
0FFC
078C
0008
ENDCHAR
STARTCHAR R
ENCODING 82
SWIDTH 475 0
DWIDTH 15 0
BBX 12 23 2 0
BITMAP
7E00
FF80
FF80
E0E0
E0E0
E0E0
E0E0
E0E0
E0E0
E0F0
E1E0
7FE0
FF80
E7C0
E0E0
E0E0
E070
E070
E070
E070
E070
E070
E0F0
ENDCHAR
STARTCHAR S
ENCODING 83
SWIDTH 475 0
DWIDTH 15 0
BBX 14 23 1 0
BITMAP
0600
0FC0
1FE0
3CF0
3870
7070
7070
7000
7800
3800
3E00
0FF0
01F0
0078
003C
0038
E038
7038
7870
7070
7FE0
1FE0
1F00
ENDCHAR
STARTCHAR T
ENCODING 84
SWIDTH 475 0
DWIDTH 15 0
BBX 12 23 2 0
BITMAP
FFF0
FFF0
FFF0
0E00
0E00
0E00
0E00
0E00
0E00
0E00
0E00
0E00
0E00
0E00
0E00
0E00
0E00
0E00
0E00
0E00
0E00
0E00
0E00
ENDCHAR
STARTCHAR U
ENCODING 85
SWIDTH 475 0
DWIDTH 15 0
BBX 13 23 2 0
BITMAP
E070
E070
E070
E070
E070
E070
E070
E070
E070
E070
E070
E070
E070
E070
E070
E070
E070
7070
7078
7070
7FE0
3FE0
1F80
ENDCHAR
STARTCHAR V
ENCODING 86
SWIDTH 475 0
DWIDTH 15 0
BBX 12 23 2 0
BITMAP
E070
E070
E070
E070
E070
E0E0
E0E0
70E0
70E0
71C0
71C0
39C0
3B80
3B80
1F80
1F80
1F00
1F00
0F00
0F00
0E00
0E00
0600
ENDCHAR
STARTCHAR W
ENCODING 87
SWIDTH 475 0
DWIDTH 15 0
BBX 15 23 0 0
BITMAP
E00E
E00E
E00E
E00E
E00E
E00E
E00E
E00E
E00E
E10E
E18E
E18E
E18E
E38E
E3CE
73CE
73DC
7FFC
7C7C
7C78
3C78
1C38
1C38
ENDCHAR
STARTCHAR X
ENCODING 88
SWIDTH 475 0
DWIDTH 15 0
BBX 12 23 2 0
BITMAP
E070
E0E0
70E0
71C0
71C0
39C0
3B80
1F80
1F00
0F00
0F00
0F00
0F00
1F00
1F80
3B80
39C0
71C0
71C0
70E0
E0E0
E070
E070
ENDCHAR
STARTCHAR Y
ENCODING 89
SWIDTH 475 0
DWIDTH 15 0
BBX 12 23 2 0
BITMAP
E070
E070
E070
E070
E070
70E0
70E0
39C0
39C0
39C0
1F80
1F00
0F00
0E00
0E00
0E00
0E00
0E00
0E00
0E00
0E00
0E00
0E00
ENDCHAR
STARTCHAR Z
ENCODING 90
SWIDTH 475 0
DWIDTH 15 0
BBX 13 23 1 0
BITMAP
7FF8
7FF8
7FF8
0038
0038
0070
00E0
00E0
01C0
01C0
0380
0700
0700
0E00
0E00
1C00
1C00
3800
7000
7000
FFF8
FFF8
FFF8
ENDCHAR
STARTCHAR bracketleft
ENCODING 91
SWIDTH 475 0
DWIDTH 15 0
BBX 7 25 4 -2
BITMAP
7E
7E
7E
E0
E0
E0
E0
E0
E0
E0
E0
E0
E0
E0
E0
E0
E0
E0
E0
E0
E0
E0
E0
7E
7E
ENDCHAR
STARTCHAR backslash
ENCODING 92
SWIDTH 475 0
DWIDTH 15 0
BBX 9 25 4 -2
BITMAP
E000
E000
E000
E000
7000
7000
7000
7000
3800
3800
3800
3800
1C00
1C00
1C00
1C00
0E00
0E00
0E00
0700
0700
0700
0700
0380
0380
ENDCHAR
STARTCHAR bracketright
ENCODING 93
SWIDTH 475 0
DWIDTH 15 0
BBX 6 25 5 -2
BITMAP
FC
FC
FC
1C
1C
1C
1C
1C
1C
1C
1C
1C
1C
1C
1C
1C
1C
1C
1C
1C
1C
1C
1C
FC
FC
ENDCHAR
STARTCHAR asciicircum
ENCODING 94
SWIDTH 475 0
DWIDTH 15 0
BBX 12 7 2 15
BITMAP
0700
0F00
1F80
39C0
70E0
7070
C030
ENDCHAR
STARTCHAR underscore
ENCODING 95
SWIDTH 475 0
DWIDTH 15 0
BBX 15 2 1 -7
BITMAP
FFFE
FFFE
ENDCHAR
STARTCHAR grave
ENCODING 96
SWIDTH 475 0
DWIDTH 15 0
BBX 5 5 5 20
BITMAP
E0
70
38
18
18
ENDCHAR
STARTCHAR a
ENCODING 97
SWIDTH 475 0
DWIDTH 15 0
BBX 13 18 2 0
BITMAP
0200
1FC0
3FC0
70E0
7070
0070
0070
03F0
3FE0
3E70
7C70
7070
E070
E0E0
70F0
7FF0
7F38
7E10
ENDCHAR
STARTCHAR b
ENCODING 98
SWIDTH 475 0
DWIDTH 15 0
BBX 12 23 2 0
BITMAP
E000
E000
E000
E000
E000
E600
FFC0
FDE0
F0E0
F070
7070
7070
7070
7070
7070
7070
7070
F070
F0E0
F8E0
FFC0
EF80
0200
ENDCHAR
STARTCHAR c
ENCODING 99
SWIDTH 475 0
DWIDTH 15 0
BBX 13 18 1 0
BITMAP
0200
1FC0
1FE0
3CF0
7070
7000
7000
E000
E000
E000
7000
7038
7038
7070
3860
3FE0
0FC0
0780
ENDCHAR
STARTCHAR d
ENCODING 100
SWIDTH 475 0
DWIDTH 15 0
BBX 12 23 2 0
BITMAP
0070
0070
0070
0070
0070
0370
3FF0
3DF0
70F0
70F0
7070
E070
E070
E070
E070
E070
7070
70F0
60F0
39F0
3FF0
1F70
0400
ENDCHAR
STARTCHAR e
ENCODING 101
SWIDTH 475 0
DWIDTH 15 0
BBX 12 18 2 0
BITMAP
0600
1FC0
3FC0
7FE0
7070
7070
7070
FFF0
FFF0
FFF0
E000
7000
7070
7070
7870
3FE0
0FE0
0FC0
ENDCHAR
STARTCHAR f
ENCODING 102
SWIDTH 475 0
DWIDTH 15 0
BBX 12 23 2 0
BITMAP
0070
07F0
0FF0
0F00
0E00
FFE0
FFE0
FFE0
0E00
0E00
0E00
0E00
0E00
0E00
0E00
0E00
0E00
0E00
0E00
0E00
0E00
0E00
0E00
ENDCHAR
STARTCHAR g
ENCODING 103
SWIDTH 475 0
DWIDTH 15 0
BBX 13 20 2 -2
BITMAP
1C30
3F30
7FF0
7FF0
7078
7070
E070
E070
E070
E070
7078
7078
7FF0
3FF8
1F38
0070
7060
70F0
3FC0
3F00
ENDCHAR
STARTCHAR h
ENCODING 104
SWIDTH 475 0
DWIDTH 15 0
BBX 13 23 2 0
BITMAP
E000
E000
E000
E000
E000
E780
EFE0
FEE0
FC70
F070
7070
E038
E038
E038
E038
E038
E038
E038
E038
E038
E038
E038
E038
ENDCHAR
STARTCHAR i
ENCODING 105
SWIDTH 475 0
DWIDTH 15 0
BBX 11 23 2 0
BITMAP
0E00
0E00
0E00
0000
0000
7E00
7E00
7E00
0E00
0E00
0E00
0E00
0E00
0E00
0E00
0E00
0E00
0E00
0E00
0E00
FFE0
FFE0
FFE0
ENDCHAR
STARTCHAR j
ENCODING 106
SWIDTH 475 0
DWIDTH 15 0
BBX 6 25 6 -2
BITMAP
38
38
38
00
00
FC
FC
FC
38
38
38
38
38
38
38
38
38
38
38
38
38
38
38
78
F8
ENDCHAR
STARTCHAR k
ENCODING 107
SWIDTH 475 0
DWIDTH 15 0
BBX 11 23 2 0
BITMAP
E000
E000
E000
E000
E000
E0E0
E1C0
E1C0
E380
E700
7F00
FE00
FE00
FE00
E700
E700
E380
E380
E1C0
E1C0
E1C0
E0E0
E0E0
ENDCHAR
STARTCHAR l
ENCODING 108
SWIDTH 475 0
DWIDTH 15 0
BBX 11 23 2 0
BITMAP
7E00
7E00
7E00
0E00
0E00
0E00
0E00
0E00
0E00
0E00
0E00
0E00
0E00
0E00
0E00
0E00
0E00
0E00
0E00
0E00
FFE0
FFE0
FFE0
ENDCHAR
STARTCHAR m
ENCODING 109
SWIDTH 475 0
DWIDTH 15 0
BBX 14 18 1 0
BITMAP
6E60
7FF8
FFF8
E39C
E39C
E39C
E39C
E39C
E39C
E39C
E39C
E39C
E39C
E39C
E39C
E39C
E39C
E39C
ENDCHAR
STARTCHAR n
ENCODING 110
SWIDTH 475 0
DWIDTH 15 0
BBX 12 18 2 0
BITMAP
E700
EFE0
EFC0
FC70
F070
7070
E070
E070
E070
E070
E070
E070
E070
E070
E070
E070
E070
E070
ENDCHAR
STARTCHAR o
ENCODING 111
SWIDTH 475 0
DWIDTH 15 0
BBX 13 18 2 0
BITMAP
0200
1FE0
1FE0
3870
7070
7038
7038
E038
E038
E038
7038
7038
7070
7070
3CE0
3FE0
1FC0
0780
ENDCHAR
STARTCHAR p
ENCODING 112
SWIDTH 475 0
DWIDTH 15 0
BBX 12 20 2 -2
BITMAP
E600
FFC0
FDE0
F0E0
F070
7070
7070
7070
7070
7070
7070
F070
F070
F8E0
EFE0
EF80
E000
E000
E000
E000
ENDCHAR
STARTCHAR q
ENCODING 113
SWIDTH 475 0
DWIDTH 15 0
BBX 12 20 3 -2
BITMAP
0EE0
7FE0
7BE0
E1E0
F1E0
E0F0
E0E0
E0E0
E0E0
E0E0
E0F0
E1E0
E1E0
79E0
7FE0
3EE0
00E0
00E0
00E0
00E0
ENDCHAR
STARTCHAR r
ENCODING 114
SWIDTH 475 0
DWIDTH 15 0
BBX 11 18 2 0
BITMAP
E200
E7C0
F9E0
F0E0
7060
E060
E000
E000
E000
E000
E000
E000
E000
E000
E000
E000
E000
E000
ENDCHAR
STARTCHAR s
ENCODING 115
SWIDTH 475 0
DWIDTH 15 0
BBX 12 18 2 0
BITMAP
0400
3F80
7BC0
F1C0
7060
7000
7000
7E00
7FC0
07E0
01F0
0070
E070
E070
70E0
3FE0
3FC0
0F00
ENDCHAR
STARTCHAR t
ENCODING 116
SWIDTH 475 0
DWIDTH 15 0
BBX 11 21 3 0
BITMAP
1C00
1C00
1C00
FFE0
FFE0
FFE0
1C00
1C00
1C00
1C00
1C00
1C00
1C00
1C00
1C00
1C00
1C00
0E00
0FE0
07E0
01C0
ENDCHAR
STARTCHAR u
ENCODING 117
SWIDTH 475 0
DWIDTH 15 0
BBX 12 18 2 0
BITMAP
E070
E070
E070
E070
E070
E070
E070
E070
E070
E070
E070
E070
E0E0
70F0
70F0
7FF0
3E00
0800
ENDCHAR
STARTCHAR v
ENCODING 118
SWIDTH 475 0
DWIDTH 15 0
BBX 13 18 1 0
BITMAP
E038
7038
7038
7070
3870
3870
3870
38E0
1CE0
1CE0
1DC0
0FC0
0FC0
0F80
0F80
0780
0780
0700
ENDCHAR
STARTCHAR w
ENCODING 119
SWIDTH 475 0
DWIDTH 15 0
BBX 17 18 0 0
BITMAP
E18380
718700
718700
71C700
71C700
71C700
398E00
398E00
39CE00
3BEE00
1F7C00
1F7C00
1F3C00
1E3C00
1E3C00
0E3800
0E3800
0E3800
ENDCHAR
STARTCHAR x
ENCODING 120
SWIDTH 475 0
DWIDTH 15 0
BBX 12 18 2 0
BITMAP
E070
E0E0
70E0
71C0
3B80
1F80
1F80
0F00
0F00
0F00
1F00
1F80
3B80
39C0
71C0
70E0
E0E0
E070
ENDCHAR
STARTCHAR y
ENCODING 121
SWIDTH 475 0
DWIDTH 15 0
BBX 13 19 2 -1
BITMAP
E038
7038
7070
7070
7070
7070
38E0
38E0
38E0
39C0
39C0
1FC0
1FC0
1F80
0F80
0780
0700
7F00
7E00
ENDCHAR
STARTCHAR z
ENCODING 122
SWIDTH 475 0
DWIDTH 15 0
BBX 11 18 2 0
BITMAP
7FE0
7FE0
7FE0
00E0
01C0
0380
0380
0700
0E00
0E00
1C00
1C00
3800
7000
7000
FFE0
FFE0
FFE0
ENDCHAR
STARTCHAR braceleft
ENCODING 123
SWIDTH 475 0
DWIDTH 15 0
BBX 12 25 2 -2
BITMAP
0010
03E0
0700
0700
0700
0700
0700
0700
0700
0700
0E00
0E00
7800
F000
0E00
0700
0700
0700
0700
0700
0700
0700
0700
07E0
03E0
ENDCHAR
STARTCHAR bar
ENCODING 124
SWIDTH 475 0
DWIDTH 15 0
BBX 3 27 6 -2
BITMAP
E0
E0
E0
E0
E0
E0
E0
E0
E0
E0
E0
E0
E0
E0
E0
E0
E0
E0
E0
E0
E0
E0
E0
E0
E0
E0
E0
ENDCHAR
STARTCHAR braceright
ENCODING 125
SWIDTH 475 0
DWIDTH 15 0
BBX 11 25 2 -2
BITMAP
8000
7C00
0E00
0E00
0E00
0E00
0E00
0E00
0E00
0E00
0700
0700
01E0
01E0
0700
0E00
0E00
0E00
0E00
0E00
0E00
0E00
0E00
FC00
7C00
ENDCHAR
STARTCHAR asciitilde
ENCODING 126
SWIDTH 475 0
DWIDTH 15 0
BBX 14 4 1 8
BITMAP
0808
3FFC
FFF0
01F8
ENDCHAR
STARTCHAR space.dup1
ENCODING 160
SWIDTH 475 0
DWIDTH 15 0
BBX 1 1 0 0
BITMAP
00
ENDCHAR
STARTCHAR exclamdown
ENCODING 161
SWIDTH 475 0
DWIDTH 15 0
BBX 1 1 0 0
BITMAP
00
ENDCHAR
STARTCHAR cent
ENCODING 162
SWIDTH 475 0
DWIDTH 15 0
BBX 1 1 0 0
BITMAP
00
ENDCHAR
STARTCHAR sterling
ENCODING 163
SWIDTH 475 0
DWIDTH 15 0
BBX 1 1 0 0
BITMAP
00
ENDCHAR
STARTCHAR currency
ENCODING 164
SWIDTH 475 0
DWIDTH 15 0
BBX 1 1 0 0
BITMAP
00
ENDCHAR
STARTCHAR yen
ENCODING 165
SWIDTH 475 0
DWIDTH 15 0
BBX 1 1 0 0
BITMAP
00
ENDCHAR
STARTCHAR brokenbar
ENCODING 166
SWIDTH 475 0
DWIDTH 15 0
BBX 1 1 0 0
BITMAP
00
ENDCHAR
STARTCHAR section
ENCODING 167
SWIDTH 475 0
DWIDTH 15 0
BBX 1 1 0 0
BITMAP
00
ENDCHAR
STARTCHAR dieresis
ENCODING 168
SWIDTH 475 0
DWIDTH 15 0
BBX 1 1 0 0
BITMAP
00
ENDCHAR
STARTCHAR copyright
ENCODING 169
SWIDTH 475 0
DWIDTH 15 0
BBX 15 18 0 2
BITMAP
07E0
1FF0
1C38
33CC
67FC
6766
6C66
D826
D806
D806
D806
6C26
4C66
67EC
33DC
3838
0FF0
0FE0
ENDCHAR
STARTCHAR ordfeminine
ENCODING 170
SWIDTH 475 0
DWIDTH 15 0
BBX 1 1 0 0
BITMAP
00
ENDCHAR
STARTCHAR guillemotleft
ENCODING 171
SWIDTH 475 0
DWIDTH 15 0
BBX 1 1 0 0
BITMAP
00
ENDCHAR
STARTCHAR logicalnot
ENCODING 172
SWIDTH 475 0
DWIDTH 15 0
BBX 1 1 0 0
BITMAP
00
ENDCHAR
STARTCHAR hyphen.dup2
ENCODING 173
SWIDTH 475 0
DWIDTH 15 0
BBX 6 2 5 8
BITMAP
FC
FC
ENDCHAR
STARTCHAR registered
ENCODING 174
SWIDTH 475 0
DWIDTH 15 0
BBX 15 18 0 2
BITMAP
07E0
1FF0
1C38
3E0C
6FDC
6466
6466
C466
C7C6
C786
C4C6
64C6
4E76
6F6C
301C
3838
0FF0
0FE0
ENDCHAR
STARTCHAR macron
ENCODING 175
SWIDTH 475 0
DWIDTH 15 0
BBX 1 1 0 0
BITMAP
00
ENDCHAR
STARTCHAR degree
ENCODING 176
SWIDTH 475 0
DWIDTH 15 0
BBX 9 10 4 13
BITMAP
0800
7F00
7700
E380
C180
C180
C180
C180
FF00
7F00
ENDCHAR
STARTCHAR plusminus
ENCODING 177
SWIDTH 475 0
DWIDTH 15 0
BBX 1 1 0 0
BITMAP
00
ENDCHAR
STARTCHAR uni00B2
ENCODING 178
SWIDTH 475 0
DWIDTH 15 0
BBX 1 1 0 0
BITMAP
00
ENDCHAR
STARTCHAR uni00B3
ENCODING 179
SWIDTH 475 0
DWIDTH 15 0
BBX 1 1 0 0
BITMAP
00
ENDCHAR
STARTCHAR acute
ENCODING 180
SWIDTH 475 0
DWIDTH 15 0
BBX 1 1 0 0
BITMAP
00
ENDCHAR
STARTCHAR mu
ENCODING 181
SWIDTH 475 0
DWIDTH 15 0
BBX 1 1 0 0
BITMAP
00
ENDCHAR
STARTCHAR paragraph
ENCODING 182
SWIDTH 475 0
DWIDTH 15 0
BBX 1 1 0 0
BITMAP
00
ENDCHAR
STARTCHAR periodcentered
ENCODING 183
SWIDTH 475 0
DWIDTH 15 0
BBX 1 1 0 0
BITMAP
00
ENDCHAR
STARTCHAR cedilla
ENCODING 184
SWIDTH 475 0
DWIDTH 15 0
BBX 1 1 0 0
BITMAP
00
ENDCHAR
STARTCHAR uni00B9
ENCODING 185
SWIDTH 475 0
DWIDTH 15 0
BBX 1 1 0 0
BITMAP
00
ENDCHAR
STARTCHAR ordmasculine
ENCODING 186
SWIDTH 475 0
DWIDTH 15 0
BBX 1 1 0 0
BITMAP
00
ENDCHAR
STARTCHAR guillemotright
ENCODING 187
SWIDTH 475 0
DWIDTH 15 0
BBX 1 1 0 0
BITMAP
00
ENDCHAR
STARTCHAR onequarter
ENCODING 188
SWIDTH 475 0
DWIDTH 15 0
BBX 1 1 0 0
BITMAP
00
ENDCHAR
STARTCHAR onehalf
ENCODING 189
SWIDTH 475 0
DWIDTH 15 0
BBX 1 1 0 0
BITMAP
00
ENDCHAR
STARTCHAR threequarters
ENCODING 190
SWIDTH 475 0
DWIDTH 15 0
BBX 1 1 0 0
BITMAP
00
ENDCHAR
STARTCHAR questiondown
ENCODING 191
SWIDTH 475 0
DWIDTH 15 0
BBX 1 1 0 0
BITMAP
00
ENDCHAR
STARTCHAR Agrave
ENCODING 192
SWIDTH 475 0
DWIDTH 15 0
BBX 1 1 0 0
BITMAP
00
ENDCHAR
STARTCHAR Aacute
ENCODING 193
SWIDTH 475 0
DWIDTH 15 0
BBX 1 1 0 0
BITMAP
00
ENDCHAR
STARTCHAR Acircumflex
ENCODING 194
SWIDTH 475 0
DWIDTH 15 0
BBX 1 1 0 0
BITMAP
00
ENDCHAR
STARTCHAR Atilde
ENCODING 195
SWIDTH 475 0
DWIDTH 15 0
BBX 1 1 0 0
BITMAP
00
ENDCHAR
STARTCHAR Adieresis
ENCODING 196
SWIDTH 475 0
DWIDTH 15 0
BBX 1 1 0 0
BITMAP
00
ENDCHAR
STARTCHAR Aring
ENCODING 197
SWIDTH 475 0
DWIDTH 15 0
BBX 1 1 0 0
BITMAP
00
ENDCHAR
STARTCHAR AE
ENCODING 198
SWIDTH 475 0
DWIDTH 15 0
BBX 1 1 0 0
BITMAP
00
ENDCHAR
STARTCHAR Ccedilla
ENCODING 199
SWIDTH 475 0
DWIDTH 15 0
BBX 1 1 0 0
BITMAP
00
ENDCHAR
STARTCHAR Egrave
ENCODING 200
SWIDTH 475 0
DWIDTH 15 0
BBX 1 1 0 0
BITMAP
00
ENDCHAR
STARTCHAR Eacute
ENCODING 201
SWIDTH 475 0
DWIDTH 15 0
BBX 1 1 0 0
BITMAP
00
ENDCHAR
STARTCHAR Ecircumflex
ENCODING 202
SWIDTH 475 0
DWIDTH 15 0
BBX 1 1 0 0
BITMAP
00
ENDCHAR
STARTCHAR Edieresis
ENCODING 203
SWIDTH 475 0
DWIDTH 15 0
BBX 1 1 0 0
BITMAP
00
ENDCHAR
STARTCHAR Igrave
ENCODING 204
SWIDTH 475 0
DWIDTH 15 0
BBX 1 1 0 0
BITMAP
00
ENDCHAR
STARTCHAR Iacute
ENCODING 205
SWIDTH 475 0
DWIDTH 15 0
BBX 1 1 0 0
BITMAP
00
ENDCHAR
STARTCHAR Icircumflex
ENCODING 206
SWIDTH 475 0
DWIDTH 15 0
BBX 1 1 0 0
BITMAP
00
ENDCHAR
STARTCHAR Idieresis
ENCODING 207
SWIDTH 475 0
DWIDTH 15 0
BBX 1 1 0 0
BITMAP
00
ENDCHAR
STARTCHAR Eth
ENCODING 208
SWIDTH 475 0
DWIDTH 15 0
BBX 1 1 0 0
BITMAP
00
ENDCHAR
STARTCHAR Ntilde
ENCODING 209
SWIDTH 475 0
DWIDTH 15 0
BBX 1 1 0 0
BITMAP
00
ENDCHAR
STARTCHAR Ograve
ENCODING 210
SWIDTH 475 0
DWIDTH 15 0
BBX 1 1 0 0
BITMAP
00
ENDCHAR
STARTCHAR Oacute
ENCODING 211
SWIDTH 475 0
DWIDTH 15 0
BBX 1 1 0 0
BITMAP
00
ENDCHAR
STARTCHAR Ocircumflex
ENCODING 212
SWIDTH 475 0
DWIDTH 15 0
BBX 1 1 0 0
BITMAP
00
ENDCHAR
STARTCHAR Otilde
ENCODING 213
SWIDTH 475 0
DWIDTH 15 0
BBX 1 1 0 0
BITMAP
00
ENDCHAR
STARTCHAR Odieresis
ENCODING 214
SWIDTH 475 0
DWIDTH 15 0
BBX 1 1 0 0
BITMAP
00
ENDCHAR
STARTCHAR multiply
ENCODING 215
SWIDTH 475 0
DWIDTH 15 0
BBX 1 1 0 0
BITMAP
00
ENDCHAR
STARTCHAR Oslash
ENCODING 216
SWIDTH 475 0
DWIDTH 15 0
BBX 1 1 0 0
BITMAP
00
ENDCHAR
STARTCHAR Ugrave
ENCODING 217
SWIDTH 475 0
DWIDTH 15 0
BBX 1 1 0 0
BITMAP
00
ENDCHAR
STARTCHAR Uacute
ENCODING 218
SWIDTH 475 0
DWIDTH 15 0
BBX 1 1 0 0
BITMAP
00
ENDCHAR
STARTCHAR Ucircumflex
ENCODING 219
SWIDTH 475 0
DWIDTH 15 0
BBX 1 1 0 0
BITMAP
00
ENDCHAR
STARTCHAR Udieresis
ENCODING 220
SWIDTH 475 0
DWIDTH 15 0
BBX 1 1 0 0
BITMAP
00
ENDCHAR
STARTCHAR Yacute
ENCODING 221
SWIDTH 475 0
DWIDTH 15 0
BBX 1 1 0 0
BITMAP
00
ENDCHAR
STARTCHAR Thorn
ENCODING 222
SWIDTH 475 0
DWIDTH 15 0
BBX 1 1 0 0
BITMAP
00
ENDCHAR
STARTCHAR germandbls
ENCODING 223
SWIDTH 475 0
DWIDTH 15 0
BBX 1 1 0 0
BITMAP
00
ENDCHAR
STARTCHAR agrave
ENCODING 224
SWIDTH 475 0
DWIDTH 15 0
BBX 1 1 0 0
BITMAP
00
ENDCHAR
STARTCHAR aacute
ENCODING 225
SWIDTH 475 0
DWIDTH 15 0
BBX 1 1 0 0
BITMAP
00
ENDCHAR
STARTCHAR acircumflex
ENCODING 226
SWIDTH 475 0
DWIDTH 15 0
BBX 1 1 0 0
BITMAP
00
ENDCHAR
STARTCHAR atilde
ENCODING 227
SWIDTH 475 0
DWIDTH 15 0
BBX 1 1 0 0
BITMAP
00
ENDCHAR
STARTCHAR adieresis
ENCODING 228
SWIDTH 475 0
DWIDTH 15 0
BBX 1 1 0 0
BITMAP
00
ENDCHAR
STARTCHAR aring
ENCODING 229
SWIDTH 475 0
DWIDTH 15 0
BBX 1 1 0 0
BITMAP
00
ENDCHAR
STARTCHAR ae
ENCODING 230
SWIDTH 475 0
DWIDTH 15 0
BBX 1 1 0 0
BITMAP
00
ENDCHAR
STARTCHAR ccedilla
ENCODING 231
SWIDTH 475 0
DWIDTH 15 0
BBX 1 1 0 0
BITMAP
00
ENDCHAR
STARTCHAR egrave
ENCODING 232
SWIDTH 475 0
DWIDTH 15 0
BBX 1 1 0 0
BITMAP
00
ENDCHAR
STARTCHAR eacute
ENCODING 233
SWIDTH 475 0
DWIDTH 15 0
BBX 1 1 0 0
BITMAP
00
ENDCHAR
STARTCHAR ecircumflex
ENCODING 234
SWIDTH 475 0
DWIDTH 15 0
BBX 1 1 0 0
BITMAP
00
ENDCHAR
STARTCHAR edieresis
ENCODING 235
SWIDTH 475 0
DWIDTH 15 0
BBX 1 1 0 0
BITMAP
00
ENDCHAR
STARTCHAR igrave
ENCODING 236
SWIDTH 475 0
DWIDTH 15 0
BBX 1 1 0 0
BITMAP
00
ENDCHAR
STARTCHAR iacute
ENCODING 237
SWIDTH 475 0
DWIDTH 15 0
BBX 1 1 0 0
BITMAP
00
ENDCHAR
STARTCHAR icircumflex
ENCODING 238
SWIDTH 475 0
DWIDTH 15 0
BBX 1 1 0 0
BITMAP
00
ENDCHAR
STARTCHAR idieresis
ENCODING 239
SWIDTH 475 0
DWIDTH 15 0
BBX 1 1 0 0
BITMAP
00
ENDCHAR
STARTCHAR eth
ENCODING 240
SWIDTH 475 0
DWIDTH 15 0
BBX 1 1 0 0
BITMAP
00
ENDCHAR
STARTCHAR ntilde
ENCODING 241
SWIDTH 475 0
DWIDTH 15 0
BBX 1 1 0 0
BITMAP
00
ENDCHAR
STARTCHAR ograve
ENCODING 242
SWIDTH 475 0
DWIDTH 15 0
BBX 1 1 0 0
BITMAP
00
ENDCHAR
STARTCHAR oacute
ENCODING 243
SWIDTH 475 0
DWIDTH 15 0
BBX 1 1 0 0
BITMAP
00
ENDCHAR
STARTCHAR ocircumflex
ENCODING 244
SWIDTH 475 0
DWIDTH 15 0
BBX 1 1 0 0
BITMAP
00
ENDCHAR
STARTCHAR otilde
ENCODING 245
SWIDTH 475 0
DWIDTH 15 0
BBX 1 1 0 0
BITMAP
00
ENDCHAR
STARTCHAR odieresis
ENCODING 246
SWIDTH 475 0
DWIDTH 15 0
BBX 1 1 0 0
BITMAP
00
ENDCHAR
STARTCHAR divide
ENCODING 247
SWIDTH 475 0
DWIDTH 15 0
BBX 1 1 0 0
BITMAP
00
ENDCHAR
STARTCHAR oslash
ENCODING 248
SWIDTH 475 0
DWIDTH 15 0
BBX 1 1 0 0
BITMAP
00
ENDCHAR
STARTCHAR ugrave
ENCODING 249
SWIDTH 475 0
DWIDTH 15 0
BBX 1 1 0 0
BITMAP
00
ENDCHAR
STARTCHAR uacute
ENCODING 250
SWIDTH 475 0
DWIDTH 15 0
BBX 1 1 0 0
BITMAP
00
ENDCHAR
STARTCHAR ucircumflex
ENCODING 251
SWIDTH 475 0
DWIDTH 15 0
BBX 1 1 0 0
BITMAP
00
ENDCHAR
STARTCHAR udieresis
ENCODING 252
SWIDTH 475 0
DWIDTH 15 0
BBX 1 1 0 0
BITMAP
00
ENDCHAR
STARTCHAR yacute
ENCODING 253
SWIDTH 475 0
DWIDTH 15 0
BBX 1 1 0 0
BITMAP
00
ENDCHAR
STARTCHAR thorn
ENCODING 254
SWIDTH 475 0
DWIDTH 15 0
BBX 1 1 0 0
BITMAP
00
ENDCHAR
STARTCHAR ydieresis
ENCODING 255
SWIDTH 475 0
DWIDTH 15 0
BBX 1 1 0 0
BITMAP
00
ENDCHAR
STARTCHAR Amacron
ENCODING 256
SWIDTH 475 0
DWIDTH 15 0
BBX 1 1 0 0
BITMAP
00
ENDCHAR
STARTCHAR amacron
ENCODING 257
SWIDTH 475 0
DWIDTH 15 0
BBX 1 1 0 0
BITMAP
00
ENDCHAR
STARTCHAR Abreve
ENCODING 258
SWIDTH 475 0
DWIDTH 15 0
BBX 1 1 0 0
BITMAP
00
ENDCHAR
STARTCHAR abreve
ENCODING 259
SWIDTH 475 0
DWIDTH 15 0
BBX 1 1 0 0
BITMAP
00
ENDCHAR
STARTCHAR Aogonek
ENCODING 260
SWIDTH 475 0
DWIDTH 15 0
BBX 1 1 0 0
BITMAP
00
ENDCHAR
STARTCHAR aogonek
ENCODING 261
SWIDTH 475 0
DWIDTH 15 0
BBX 1 1 0 0
BITMAP
00
ENDCHAR
STARTCHAR Cacute
ENCODING 262
SWIDTH 475 0
DWIDTH 15 0
BBX 1 1 0 0
BITMAP
00
ENDCHAR
STARTCHAR cacute
ENCODING 263
SWIDTH 475 0
DWIDTH 15 0
BBX 1 1 0 0
BITMAP
00
ENDCHAR
STARTCHAR Ccircumflex
ENCODING 264
SWIDTH 475 0
DWIDTH 15 0
BBX 1 1 0 0
BITMAP
00
ENDCHAR
STARTCHAR ccircumflex
ENCODING 265
SWIDTH 475 0
DWIDTH 15 0
BBX 1 1 0 0
BITMAP
00
ENDCHAR
STARTCHAR Cdotaccent
ENCODING 266
SWIDTH 475 0
DWIDTH 15 0
BBX 1 1 0 0
BITMAP
00
ENDCHAR
STARTCHAR cdotaccent
ENCODING 267
SWIDTH 475 0
DWIDTH 15 0
BBX 1 1 0 0
BITMAP
00
ENDCHAR
STARTCHAR Ccaron
ENCODING 268
SWIDTH 475 0
DWIDTH 15 0
BBX 1 1 0 0
BITMAP
00
ENDCHAR
STARTCHAR ccaron
ENCODING 269
SWIDTH 475 0
DWIDTH 15 0
BBX 1 1 0 0
BITMAP
00
ENDCHAR
STARTCHAR Dcaron
ENCODING 270
SWIDTH 475 0
DWIDTH 15 0
BBX 1 1 0 0
BITMAP
00
ENDCHAR
STARTCHAR dcaron
ENCODING 271
SWIDTH 475 0
DWIDTH 15 0
BBX 1 1 0 0
BITMAP
00
ENDCHAR
STARTCHAR Dcroat
ENCODING 272
SWIDTH 475 0
DWIDTH 15 0
BBX 1 1 0 0
BITMAP
00
ENDCHAR
STARTCHAR dcroat
ENCODING 273
SWIDTH 475 0
DWIDTH 15 0
BBX 1 1 0 0
BITMAP
00
ENDCHAR
STARTCHAR Emacron
ENCODING 274
SWIDTH 475 0
DWIDTH 15 0
BBX 1 1 0 0
BITMAP
00
ENDCHAR
STARTCHAR emacron
ENCODING 275
SWIDTH 475 0
DWIDTH 15 0
BBX 1 1 0 0
BITMAP
00
ENDCHAR
STARTCHAR Ebreve
ENCODING 276
SWIDTH 475 0
DWIDTH 15 0
BBX 1 1 0 0
BITMAP
00
ENDCHAR
STARTCHAR ebreve
ENCODING 277
SWIDTH 475 0
DWIDTH 15 0
BBX 1 1 0 0
BITMAP
00
ENDCHAR
STARTCHAR Edotaccent
ENCODING 278
SWIDTH 475 0
DWIDTH 15 0
BBX 1 1 0 0
BITMAP
00
ENDCHAR
STARTCHAR edotaccent
ENCODING 279
SWIDTH 475 0
DWIDTH 15 0
BBX 1 1 0 0
BITMAP
00
ENDCHAR
STARTCHAR Eogonek
ENCODING 280
SWIDTH 475 0
DWIDTH 15 0
BBX 1 1 0 0
BITMAP
00
ENDCHAR
STARTCHAR eogonek
ENCODING 281
SWIDTH 475 0
DWIDTH 15 0
BBX 1 1 0 0
BITMAP
00
ENDCHAR
STARTCHAR Ecaron
ENCODING 282
SWIDTH 475 0
DWIDTH 15 0
BBX 1 1 0 0
BITMAP
00
ENDCHAR
STARTCHAR ecaron
ENCODING 283
SWIDTH 475 0
DWIDTH 15 0
BBX 1 1 0 0
BITMAP
00
ENDCHAR
STARTCHAR Gcircumflex
ENCODING 284
SWIDTH 475 0
DWIDTH 15 0
BBX 1 1 0 0
BITMAP
00
ENDCHAR
STARTCHAR gcircumflex
ENCODING 285
SWIDTH 475 0
DWIDTH 15 0
BBX 1 1 0 0
BITMAP
00
ENDCHAR
STARTCHAR Gbreve
ENCODING 286
SWIDTH 475 0
DWIDTH 15 0
BBX 1 1 0 0
BITMAP
00
ENDCHAR
STARTCHAR gbreve
ENCODING 287
SWIDTH 475 0
DWIDTH 15 0
BBX 1 1 0 0
BITMAP
00
ENDCHAR
STARTCHAR Gdotaccent
ENCODING 288
SWIDTH 475 0
DWIDTH 15 0
BBX 1 1 0 0
BITMAP
00
ENDCHAR
STARTCHAR gdotaccent
ENCODING 289
SWIDTH 475 0
DWIDTH 15 0
BBX 1 1 0 0
BITMAP
00
ENDCHAR
STARTCHAR Gcommaaccent
ENCODING 290
SWIDTH 475 0
DWIDTH 15 0
BBX 1 1 0 0
BITMAP
00
ENDCHAR
STARTCHAR gcommaaccent
ENCODING 291
SWIDTH 475 0
DWIDTH 15 0
BBX 1 1 0 0
BITMAP
00
ENDCHAR
STARTCHAR Hcircumflex
ENCODING 292
SWIDTH 475 0
DWIDTH 15 0
BBX 1 1 0 0
BITMAP
00
ENDCHAR
STARTCHAR hcircumflex
ENCODING 293
SWIDTH 475 0
DWIDTH 15 0
BBX 1 1 0 0
BITMAP
00
ENDCHAR
STARTCHAR Hbar
ENCODING 294
SWIDTH 475 0
DWIDTH 15 0
BBX 1 1 0 0
BITMAP
00
ENDCHAR
STARTCHAR hbar
ENCODING 295
SWIDTH 475 0
DWIDTH 15 0
BBX 1 1 0 0
BITMAP
00
ENDCHAR
STARTCHAR Itilde
ENCODING 296
SWIDTH 475 0
DWIDTH 15 0
BBX 1 1 0 0
BITMAP
00
ENDCHAR
STARTCHAR itilde
ENCODING 297
SWIDTH 475 0
DWIDTH 15 0
BBX 1 1 0 0
BITMAP
00
ENDCHAR
STARTCHAR Imacron
ENCODING 298
SWIDTH 475 0
DWIDTH 15 0
BBX 1 1 0 0
BITMAP
00
ENDCHAR
STARTCHAR imacron
ENCODING 299
SWIDTH 475 0
DWIDTH 15 0
BBX 1 1 0 0
BITMAP
00
ENDCHAR
STARTCHAR Ibreve
ENCODING 300
SWIDTH 475 0
DWIDTH 15 0
BBX 1 1 0 0
BITMAP
00
ENDCHAR
STARTCHAR ibreve
ENCODING 301
SWIDTH 475 0
DWIDTH 15 0
BBX 1 1 0 0
BITMAP
00
ENDCHAR
STARTCHAR Iogonek
ENCODING 302
SWIDTH 475 0
DWIDTH 15 0
BBX 1 1 0 0
BITMAP
00
ENDCHAR
STARTCHAR iogonek
ENCODING 303
SWIDTH 475 0
DWIDTH 15 0
BBX 1 1 0 0
BITMAP
00
ENDCHAR
STARTCHAR Idotaccent
ENCODING 304
SWIDTH 475 0
DWIDTH 15 0
BBX 1 1 0 0
BITMAP
00
ENDCHAR
STARTCHAR dotlessi
ENCODING 305
SWIDTH 475 0
DWIDTH 15 0
BBX 1 1 0 0
BITMAP
00
ENDCHAR
STARTCHAR IJ
ENCODING 306
SWIDTH 475 0
DWIDTH 15 0
BBX 1 1 0 0
BITMAP
00
ENDCHAR
STARTCHAR ij
ENCODING 307
SWIDTH 475 0
DWIDTH 15 0
BBX 1 1 0 0
BITMAP
00
ENDCHAR
STARTCHAR Jcircumflex
ENCODING 308
SWIDTH 475 0
DWIDTH 15 0
BBX 1 1 0 0
BITMAP
00
ENDCHAR
STARTCHAR jcircumflex
ENCODING 309
SWIDTH 475 0
DWIDTH 15 0
BBX 1 1 0 0
BITMAP
00
ENDCHAR
STARTCHAR Kcommaaccent
ENCODING 310
SWIDTH 475 0
DWIDTH 15 0
BBX 1 1 0 0
BITMAP
00
ENDCHAR
STARTCHAR kcommaaccent
ENCODING 311
SWIDTH 475 0
DWIDTH 15 0
BBX 1 1 0 0
BITMAP
00
ENDCHAR
STARTCHAR kgreenlandic
ENCODING 312
SWIDTH 475 0
DWIDTH 15 0
BBX 1 1 0 0
BITMAP
00
ENDCHAR
STARTCHAR Lacute
ENCODING 313
SWIDTH 475 0
DWIDTH 15 0
BBX 1 1 0 0
BITMAP
00
ENDCHAR
STARTCHAR lacute
ENCODING 314
SWIDTH 475 0
DWIDTH 15 0
BBX 1 1 0 0
BITMAP
00
ENDCHAR
STARTCHAR Lcommaaccent
ENCODING 315
SWIDTH 475 0
DWIDTH 15 0
BBX 1 1 0 0
BITMAP
00
ENDCHAR
STARTCHAR lcommaaccent
ENCODING 316
SWIDTH 475 0
DWIDTH 15 0
BBX 1 1 0 0
BITMAP
00
ENDCHAR
STARTCHAR Lcaron
ENCODING 317
SWIDTH 475 0
DWIDTH 15 0
BBX 1 1 0 0
BITMAP
00
ENDCHAR
STARTCHAR lcaron
ENCODING 318
SWIDTH 475 0
DWIDTH 15 0
BBX 1 1 0 0
BITMAP
00
ENDCHAR
STARTCHAR Ldot
ENCODING 319
SWIDTH 475 0
DWIDTH 15 0
BBX 1 1 0 0
BITMAP
00
ENDCHAR
STARTCHAR ldot
ENCODING 320
SWIDTH 475 0
DWIDTH 15 0
BBX 1 1 0 0
BITMAP
00
ENDCHAR
STARTCHAR Lslash
ENCODING 321
SWIDTH 475 0
DWIDTH 15 0
BBX 1 1 0 0
BITMAP
00
ENDCHAR
STARTCHAR lslash
ENCODING 322
SWIDTH 475 0
DWIDTH 15 0
BBX 1 1 0 0
BITMAP
00
ENDCHAR
STARTCHAR Nacute
ENCODING 323
SWIDTH 475 0
DWIDTH 15 0
BBX 1 1 0 0
BITMAP
00
ENDCHAR
STARTCHAR nacute
ENCODING 324
SWIDTH 475 0
DWIDTH 15 0
BBX 1 1 0 0
BITMAP
00
ENDCHAR
STARTCHAR Ncommaaccent
ENCODING 325
SWIDTH 475 0
DWIDTH 15 0
BBX 1 1 0 0
BITMAP
00
ENDCHAR
STARTCHAR ncommaaccent
ENCODING 326
SWIDTH 475 0
DWIDTH 15 0
BBX 1 1 0 0
BITMAP
00
ENDCHAR
STARTCHAR Ncaron
ENCODING 327
SWIDTH 475 0
DWIDTH 15 0
BBX 1 1 0 0
BITMAP
00
ENDCHAR
STARTCHAR ncaron
ENCODING 328
SWIDTH 475 0
DWIDTH 15 0
BBX 1 1 0 0
BITMAP
00
ENDCHAR
STARTCHAR napostrophe
ENCODING 329
SWIDTH 475 0
DWIDTH 15 0
BBX 1 1 0 0
BITMAP
00
ENDCHAR
STARTCHAR Eng
ENCODING 330
SWIDTH 475 0
DWIDTH 15 0
BBX 1 1 0 0
BITMAP
00
ENDCHAR
STARTCHAR eng
ENCODING 331
SWIDTH 475 0
DWIDTH 15 0
BBX 1 1 0 0
BITMAP
00
ENDCHAR
STARTCHAR Omacron
ENCODING 332
SWIDTH 475 0
DWIDTH 15 0
BBX 1 1 0 0
BITMAP
00
ENDCHAR
STARTCHAR omacron
ENCODING 333
SWIDTH 475 0
DWIDTH 15 0
BBX 1 1 0 0
BITMAP
00
ENDCHAR
STARTCHAR Obreve
ENCODING 334
SWIDTH 475 0
DWIDTH 15 0
BBX 1 1 0 0
BITMAP
00
ENDCHAR
STARTCHAR obreve
ENCODING 335
SWIDTH 475 0
DWIDTH 15 0
BBX 1 1 0 0
BITMAP
00
ENDCHAR
STARTCHAR Ohungarumlaut
ENCODING 336
SWIDTH 475 0
DWIDTH 15 0
BBX 1 1 0 0
BITMAP
00
ENDCHAR
STARTCHAR ohungarumlaut
ENCODING 337
SWIDTH 475 0
DWIDTH 15 0
BBX 1 1 0 0
BITMAP
00
ENDCHAR
STARTCHAR OE
ENCODING 338
SWIDTH 475 0
DWIDTH 15 0
BBX 1 1 0 0
BITMAP
00
ENDCHAR
STARTCHAR oe
ENCODING 339
SWIDTH 475 0
DWIDTH 15 0
BBX 1 1 0 0
BITMAP
00
ENDCHAR
STARTCHAR Racute
ENCODING 340
SWIDTH 475 0
DWIDTH 15 0
BBX 1 1 0 0
BITMAP
00
ENDCHAR
STARTCHAR racute
ENCODING 341
SWIDTH 475 0
DWIDTH 15 0
BBX 1 1 0 0
BITMAP
00
ENDCHAR
STARTCHAR Rcommaaccent
ENCODING 342
SWIDTH 475 0
DWIDTH 15 0
BBX 1 1 0 0
BITMAP
00
ENDCHAR
STARTCHAR rcommaaccent
ENCODING 343
SWIDTH 475 0
DWIDTH 15 0
BBX 1 1 0 0
BITMAP
00
ENDCHAR
STARTCHAR Rcaron
ENCODING 344
SWIDTH 475 0
DWIDTH 15 0
BBX 1 1 0 0
BITMAP
00
ENDCHAR
STARTCHAR rcaron
ENCODING 345
SWIDTH 475 0
DWIDTH 15 0
BBX 1 1 0 0
BITMAP
00
ENDCHAR
STARTCHAR Sacute
ENCODING 346
SWIDTH 475 0
DWIDTH 15 0
BBX 1 1 0 0
BITMAP
00
ENDCHAR
STARTCHAR sacute
ENCODING 347
SWIDTH 475 0
DWIDTH 15 0
BBX 1 1 0 0
BITMAP
00
ENDCHAR
STARTCHAR Scircumflex
ENCODING 348
SWIDTH 475 0
DWIDTH 15 0
BBX 1 1 0 0
BITMAP
00
ENDCHAR
STARTCHAR scircumflex
ENCODING 349
SWIDTH 475 0
DWIDTH 15 0
BBX 1 1 0 0
BITMAP
00
ENDCHAR
STARTCHAR Scedilla
ENCODING 350
SWIDTH 475 0
DWIDTH 15 0
BBX 1 1 0 0
BITMAP
00
ENDCHAR
STARTCHAR scedilla
ENCODING 351
SWIDTH 475 0
DWIDTH 15 0
BBX 1 1 0 0
BITMAP
00
ENDCHAR
STARTCHAR Scaron
ENCODING 352
SWIDTH 475 0
DWIDTH 15 0
BBX 1 1 0 0
BITMAP
00
ENDCHAR
STARTCHAR scaron
ENCODING 353
SWIDTH 475 0
DWIDTH 15 0
BBX 1 1 0 0
BITMAP
00
ENDCHAR
STARTCHAR Tcommaaccent
ENCODING 354
SWIDTH 475 0
DWIDTH 15 0
BBX 1 1 0 0
BITMAP
00
ENDCHAR
STARTCHAR tcommaaccent
ENCODING 355
SWIDTH 475 0
DWIDTH 15 0
BBX 1 1 0 0
BITMAP
00
ENDCHAR
STARTCHAR Tcaron
ENCODING 356
SWIDTH 475 0
DWIDTH 15 0
BBX 1 1 0 0
BITMAP
00
ENDCHAR
STARTCHAR tcaron
ENCODING 357
SWIDTH 475 0
DWIDTH 15 0
BBX 1 1 0 0
BITMAP
00
ENDCHAR
STARTCHAR Tbar
ENCODING 358
SWIDTH 475 0
DWIDTH 15 0
BBX 1 1 0 0
BITMAP
00
ENDCHAR
STARTCHAR tbar
ENCODING 359
SWIDTH 475 0
DWIDTH 15 0
BBX 1 1 0 0
BITMAP
00
ENDCHAR
STARTCHAR Utilde
ENCODING 360
SWIDTH 475 0
DWIDTH 15 0
BBX 1 1 0 0
BITMAP
00
ENDCHAR
STARTCHAR utilde
ENCODING 361
SWIDTH 475 0
DWIDTH 15 0
BBX 1 1 0 0
BITMAP
00
ENDCHAR
STARTCHAR Umacron
ENCODING 362
SWIDTH 475 0
DWIDTH 15 0
BBX 1 1 0 0
BITMAP
00
ENDCHAR
STARTCHAR umacron
ENCODING 363
SWIDTH 475 0
DWIDTH 15 0
BBX 1 1 0 0
BITMAP
00
ENDCHAR
STARTCHAR Ubreve
ENCODING 364
SWIDTH 475 0
DWIDTH 15 0
BBX 1 1 0 0
BITMAP
00
ENDCHAR
STARTCHAR ubreve
ENCODING 365
SWIDTH 475 0
DWIDTH 15 0
BBX 1 1 0 0
BITMAP
00
ENDCHAR
STARTCHAR Uring
ENCODING 366
SWIDTH 475 0
DWIDTH 15 0
BBX 1 1 0 0
BITMAP
00
ENDCHAR
STARTCHAR uring
ENCODING 367
SWIDTH 475 0
DWIDTH 15 0
BBX 1 1 0 0
BITMAP
00
ENDCHAR
STARTCHAR Uhungarumlaut
ENCODING 368
SWIDTH 475 0
DWIDTH 15 0
BBX 1 1 0 0
BITMAP
00
ENDCHAR
STARTCHAR uhungarumlaut
ENCODING 369
SWIDTH 475 0
DWIDTH 15 0
BBX 1 1 0 0
BITMAP
00
ENDCHAR
STARTCHAR Uogonek
ENCODING 370
SWIDTH 475 0
DWIDTH 15 0
BBX 1 1 0 0
BITMAP
00
ENDCHAR
STARTCHAR uogonek
ENCODING 371
SWIDTH 475 0
DWIDTH 15 0
BBX 1 1 0 0
BITMAP
00
ENDCHAR
STARTCHAR Wcircumflex
ENCODING 372
SWIDTH 475 0
DWIDTH 15 0
BBX 1 1 0 0
BITMAP
00
ENDCHAR
STARTCHAR wcircumflex
ENCODING 373
SWIDTH 475 0
DWIDTH 15 0
BBX 1 1 0 0
BITMAP
00
ENDCHAR
STARTCHAR Ycircumflex
ENCODING 374
SWIDTH 475 0
DWIDTH 15 0
BBX 1 1 0 0
BITMAP
00
ENDCHAR
STARTCHAR ycircumflex
ENCODING 375
SWIDTH 475 0
DWIDTH 15 0
BBX 1 1 0 0
BITMAP
00
ENDCHAR
STARTCHAR Ydieresis
ENCODING 376
SWIDTH 475 0
DWIDTH 15 0
BBX 1 1 0 0
BITMAP
00
ENDCHAR
STARTCHAR Zacute
ENCODING 377
SWIDTH 475 0
DWIDTH 15 0
BBX 1 1 0 0
BITMAP
00
ENDCHAR
STARTCHAR zacute
ENCODING 378
SWIDTH 475 0
DWIDTH 15 0
BBX 1 1 0 0
BITMAP
00
ENDCHAR
STARTCHAR Zdotaccent
ENCODING 379
SWIDTH 475 0
DWIDTH 15 0
BBX 1 1 0 0
BITMAP
00
ENDCHAR
STARTCHAR zdotaccent
ENCODING 380
SWIDTH 475 0
DWIDTH 15 0
BBX 1 1 0 0
BITMAP
00
ENDCHAR
STARTCHAR Zcaron
ENCODING 381
SWIDTH 475 0
DWIDTH 15 0
BBX 1 1 0 0
BITMAP
00
ENDCHAR
STARTCHAR zcaron
ENCODING 382
SWIDTH 475 0
DWIDTH 15 0
BBX 1 1 0 0
BITMAP
00
ENDCHAR
STARTCHAR longs
ENCODING 383
SWIDTH 475 0
DWIDTH 15 0
BBX 1 1 0 0
BITMAP
00
ENDCHAR
STARTCHAR florin
ENCODING 402
SWIDTH 475 0
DWIDTH 15 0
BBX 1 1 0 0
BITMAP
00
ENDCHAR
STARTCHAR Aringacute
ENCODING 506
SWIDTH 475 0
DWIDTH 15 0
BBX 1 1 0 0
BITMAP
00
ENDCHAR
STARTCHAR aringacute
ENCODING 507
SWIDTH 475 0
DWIDTH 15 0
BBX 1 1 0 0
BITMAP
00
ENDCHAR
STARTCHAR AEacute
ENCODING 508
SWIDTH 475 0
DWIDTH 15 0
BBX 1 1 0 0
BITMAP
00
ENDCHAR
STARTCHAR aeacute
ENCODING 509
SWIDTH 475 0
DWIDTH 15 0
BBX 1 1 0 0
BITMAP
00
ENDCHAR
STARTCHAR Oslashacute
ENCODING 510
SWIDTH 475 0
DWIDTH 15 0
BBX 1 1 0 0
BITMAP
00
ENDCHAR
STARTCHAR oslashacute
ENCODING 511
SWIDTH 475 0
DWIDTH 15 0
BBX 1 1 0 0
BITMAP
00
ENDCHAR
STARTCHAR circumflex
ENCODING 710
SWIDTH 475 0
DWIDTH 15 0
BBX 1 1 0 0
BITMAP
00
ENDCHAR
STARTCHAR caron
ENCODING 711
SWIDTH 475 0
DWIDTH 15 0
BBX 1 1 0 0
BITMAP
00
ENDCHAR
STARTCHAR uni02C9
ENCODING 713
SWIDTH 475 0
DWIDTH 15 0
BBX 1 1 0 0
BITMAP
00
ENDCHAR
STARTCHAR breve
ENCODING 728
SWIDTH 475 0
DWIDTH 15 0
BBX 1 1 0 0
BITMAP
00
ENDCHAR
STARTCHAR dotaccent
ENCODING 729
SWIDTH 475 0
DWIDTH 15 0
BBX 1 1 0 0
BITMAP
00
ENDCHAR
STARTCHAR ring
ENCODING 730
SWIDTH 475 0
DWIDTH 15 0
BBX 1 1 0 0
BITMAP
00
ENDCHAR
STARTCHAR ogonek
ENCODING 731
SWIDTH 475 0
DWIDTH 15 0
BBX 1 1 0 0
BITMAP
00
ENDCHAR
STARTCHAR tilde
ENCODING 732
SWIDTH 475 0
DWIDTH 15 0
BBX 1 1 0 0
BITMAP
00
ENDCHAR
STARTCHAR hungarumlaut
ENCODING 733
SWIDTH 475 0
DWIDTH 15 0
BBX 1 1 0 0
BITMAP
00
ENDCHAR
STARTCHAR semicolon.dup3
ENCODING 894
SWIDTH 475 0
DWIDTH 15 0
BBX 5 21 6 -3
BITMAP
F0
F0
F0
F0
F0
00
00
00
00
00
00
00
F0
F0
F0
F0
30
30
30
78
78
ENDCHAR
STARTCHAR tonos
ENCODING 900
SWIDTH 475 0
DWIDTH 15 0
BBX 1 1 0 0
BITMAP
00
ENDCHAR
STARTCHAR dieresistonos
ENCODING 901
SWIDTH 475 0
DWIDTH 15 0
BBX 1 1 0 0
BITMAP
00
ENDCHAR
STARTCHAR Alphatonos
ENCODING 902
SWIDTH 475 0
DWIDTH 15 0
BBX 1 1 0 0
BITMAP
00
ENDCHAR
STARTCHAR anoteleia
ENCODING 903
SWIDTH 475 0
DWIDTH 15 0
BBX 1 1 0 0
BITMAP
00
ENDCHAR
STARTCHAR Epsilontonos
ENCODING 904
SWIDTH 475 0
DWIDTH 15 0
BBX 1 1 0 0
BITMAP
00
ENDCHAR
STARTCHAR Etatonos
ENCODING 905
SWIDTH 475 0
DWIDTH 15 0
BBX 1 1 0 0
BITMAP
00
ENDCHAR
STARTCHAR Iotatonos
ENCODING 906
SWIDTH 475 0
DWIDTH 15 0
BBX 1 1 0 0
BITMAP
00
ENDCHAR
STARTCHAR Omicrontonos
ENCODING 908
SWIDTH 475 0
DWIDTH 15 0
BBX 1 1 0 0
BITMAP
00
ENDCHAR
STARTCHAR Upsilontonos
ENCODING 910
SWIDTH 475 0
DWIDTH 15 0
BBX 1 1 0 0
BITMAP
00
ENDCHAR
STARTCHAR Omegatonos
ENCODING 911
SWIDTH 475 0
DWIDTH 15 0
BBX 1 1 0 0
BITMAP
00
ENDCHAR
STARTCHAR iotadieresistonos
ENCODING 912
SWIDTH 475 0
DWIDTH 15 0
BBX 1 1 0 0
BITMAP
00
ENDCHAR
STARTCHAR Alpha
ENCODING 913
SWIDTH 475 0
DWIDTH 15 0
BBX 1 1 0 0
BITMAP
00
ENDCHAR
STARTCHAR Beta
ENCODING 914
SWIDTH 475 0
DWIDTH 15 0
BBX 1 1 0 0
BITMAP
00
ENDCHAR
STARTCHAR Gamma
ENCODING 915
SWIDTH 475 0
DWIDTH 15 0
BBX 1 1 0 0
BITMAP
00
ENDCHAR
STARTCHAR uni0394
ENCODING 916
SWIDTH 475 0
DWIDTH 15 0
BBX 1 1 0 0
BITMAP
00
ENDCHAR
STARTCHAR Epsilon
ENCODING 917
SWIDTH 475 0
DWIDTH 15 0
BBX 1 1 0 0
BITMAP
00
ENDCHAR
STARTCHAR Zeta
ENCODING 918
SWIDTH 475 0
DWIDTH 15 0
BBX 1 1 0 0
BITMAP
00
ENDCHAR
STARTCHAR Eta
ENCODING 919
SWIDTH 475 0
DWIDTH 15 0
BBX 1 1 0 0
BITMAP
00
ENDCHAR
STARTCHAR Theta
ENCODING 920
SWIDTH 475 0
DWIDTH 15 0
BBX 1 1 0 0
BITMAP
00
ENDCHAR
STARTCHAR Iota
ENCODING 921
SWIDTH 475 0
DWIDTH 15 0
BBX 1 1 0 0
BITMAP
00
ENDCHAR
STARTCHAR Kappa
ENCODING 922
SWIDTH 475 0
DWIDTH 15 0
BBX 1 1 0 0
BITMAP
00
ENDCHAR
STARTCHAR Lambda
ENCODING 923
SWIDTH 475 0
DWIDTH 15 0
BBX 1 1 0 0
BITMAP
00
ENDCHAR
STARTCHAR Mu
ENCODING 924
SWIDTH 475 0
DWIDTH 15 0
BBX 1 1 0 0
BITMAP
00
ENDCHAR
STARTCHAR Nu
ENCODING 925
SWIDTH 475 0
DWIDTH 15 0
BBX 1 1 0 0
BITMAP
00
ENDCHAR
STARTCHAR Xi
ENCODING 926
SWIDTH 475 0
DWIDTH 15 0
BBX 1 1 0 0
BITMAP
00
ENDCHAR
STARTCHAR Omicron
ENCODING 927
SWIDTH 475 0
DWIDTH 15 0
BBX 1 1 0 0
BITMAP
00
ENDCHAR
STARTCHAR Pi
ENCODING 928
SWIDTH 475 0
DWIDTH 15 0
BBX 1 1 0 0
BITMAP
00
ENDCHAR
STARTCHAR Rho
ENCODING 929
SWIDTH 475 0
DWIDTH 15 0
BBX 1 1 0 0
BITMAP
00
ENDCHAR
STARTCHAR Sigma
ENCODING 931
SWIDTH 475 0
DWIDTH 15 0
BBX 1 1 0 0
BITMAP
00
ENDCHAR
STARTCHAR Tau
ENCODING 932
SWIDTH 475 0
DWIDTH 15 0
BBX 1 1 0 0
BITMAP
00
ENDCHAR
STARTCHAR Upsilon
ENCODING 933
SWIDTH 475 0
DWIDTH 15 0
BBX 1 1 0 0
BITMAP
00
ENDCHAR
STARTCHAR Phi
ENCODING 934
SWIDTH 475 0
DWIDTH 15 0
BBX 1 1 0 0
BITMAP
00
ENDCHAR
STARTCHAR Chi
ENCODING 935
SWIDTH 475 0
DWIDTH 15 0
BBX 1 1 0 0
BITMAP
00
ENDCHAR
STARTCHAR Psi
ENCODING 936
SWIDTH 475 0
DWIDTH 15 0
BBX 1 1 0 0
BITMAP
00
ENDCHAR
STARTCHAR uni03A9
ENCODING 937
SWIDTH 475 0
DWIDTH 15 0
BBX 1 1 0 0
BITMAP
00
ENDCHAR
STARTCHAR Iotadieresis
ENCODING 938
SWIDTH 475 0
DWIDTH 15 0
BBX 1 1 0 0
BITMAP
00
ENDCHAR
STARTCHAR Upsilondieresis
ENCODING 939
SWIDTH 475 0
DWIDTH 15 0
BBX 1 1 0 0
BITMAP
00
ENDCHAR
STARTCHAR alphatonos
ENCODING 940
SWIDTH 475 0
DWIDTH 15 0
BBX 1 1 0 0
BITMAP
00
ENDCHAR
STARTCHAR epsilontonos
ENCODING 941
SWIDTH 475 0
DWIDTH 15 0
BBX 1 1 0 0
BITMAP
00
ENDCHAR
STARTCHAR etatonos
ENCODING 942
SWIDTH 475 0
DWIDTH 15 0
BBX 1 1 0 0
BITMAP
00
ENDCHAR
STARTCHAR iotatonos
ENCODING 943
SWIDTH 475 0
DWIDTH 15 0
BBX 1 1 0 0
BITMAP
00
ENDCHAR
STARTCHAR upsilondieresistonos
ENCODING 944
SWIDTH 475 0
DWIDTH 15 0
BBX 1 1 0 0
BITMAP
00
ENDCHAR
STARTCHAR alpha
ENCODING 945
SWIDTH 475 0
DWIDTH 15 0
BBX 1 1 0 0
BITMAP
00
ENDCHAR
STARTCHAR beta
ENCODING 946
SWIDTH 475 0
DWIDTH 15 0
BBX 1 1 0 0
BITMAP
00
ENDCHAR
STARTCHAR gamma
ENCODING 947
SWIDTH 475 0
DWIDTH 15 0
BBX 1 1 0 0
BITMAP
00
ENDCHAR
STARTCHAR delta
ENCODING 948
SWIDTH 475 0
DWIDTH 15 0
BBX 1 1 0 0
BITMAP
00
ENDCHAR
STARTCHAR epsilon
ENCODING 949
SWIDTH 475 0
DWIDTH 15 0
BBX 1 1 0 0
BITMAP
00
ENDCHAR
STARTCHAR zeta
ENCODING 950
SWIDTH 475 0
DWIDTH 15 0
BBX 1 1 0 0
BITMAP
00
ENDCHAR
STARTCHAR eta
ENCODING 951
SWIDTH 475 0
DWIDTH 15 0
BBX 1 1 0 0
BITMAP
00
ENDCHAR
STARTCHAR theta
ENCODING 952
SWIDTH 475 0
DWIDTH 15 0
BBX 1 1 0 0
BITMAP
00
ENDCHAR
STARTCHAR iota
ENCODING 953
SWIDTH 475 0
DWIDTH 15 0
BBX 1 1 0 0
BITMAP
00
ENDCHAR
STARTCHAR kappa
ENCODING 954
SWIDTH 475 0
DWIDTH 15 0
BBX 1 1 0 0
BITMAP
00
ENDCHAR
STARTCHAR lambda
ENCODING 955
SWIDTH 475 0
DWIDTH 15 0
BBX 1 1 0 0
BITMAP
00
ENDCHAR
STARTCHAR uni03BC
ENCODING 956
SWIDTH 475 0
DWIDTH 15 0
BBX 1 1 0 0
BITMAP
00
ENDCHAR
STARTCHAR nu
ENCODING 957
SWIDTH 475 0
DWIDTH 15 0
BBX 1 1 0 0
BITMAP
00
ENDCHAR
STARTCHAR xi
ENCODING 958
SWIDTH 475 0
DWIDTH 15 0
BBX 1 1 0 0
BITMAP
00
ENDCHAR
STARTCHAR omicron
ENCODING 959
SWIDTH 475 0
DWIDTH 15 0
BBX 1 1 0 0
BITMAP
00
ENDCHAR
STARTCHAR pi
ENCODING 960
SWIDTH 475 0
DWIDTH 15 0
BBX 1 1 0 0
BITMAP
00
ENDCHAR
STARTCHAR rho
ENCODING 961
SWIDTH 475 0
DWIDTH 15 0
BBX 1 1 0 0
BITMAP
00
ENDCHAR
STARTCHAR sigma1
ENCODING 962
SWIDTH 475 0
DWIDTH 15 0
BBX 1 1 0 0
BITMAP
00
ENDCHAR
STARTCHAR sigma
ENCODING 963
SWIDTH 475 0
DWIDTH 15 0
BBX 1 1 0 0
BITMAP
00
ENDCHAR
STARTCHAR tau
ENCODING 964
SWIDTH 475 0
DWIDTH 15 0
BBX 1 1 0 0
BITMAP
00
ENDCHAR
STARTCHAR upsilon
ENCODING 965
SWIDTH 475 0
DWIDTH 15 0
BBX 1 1 0 0
BITMAP
00
ENDCHAR
STARTCHAR phi
ENCODING 966
SWIDTH 475 0
DWIDTH 15 0
BBX 1 1 0 0
BITMAP
00
ENDCHAR
STARTCHAR chi
ENCODING 967
SWIDTH 475 0
DWIDTH 15 0
BBX 1 1 0 0
BITMAP
00
ENDCHAR
STARTCHAR psi
ENCODING 968
SWIDTH 475 0
DWIDTH 15 0
BBX 1 1 0 0
BITMAP
00
ENDCHAR
STARTCHAR omega
ENCODING 969
SWIDTH 475 0
DWIDTH 15 0
BBX 1 1 0 0
BITMAP
00
ENDCHAR
STARTCHAR iotadieresis
ENCODING 970
SWIDTH 475 0
DWIDTH 15 0
BBX 1 1 0 0
BITMAP
00
ENDCHAR
STARTCHAR upsilondieresis
ENCODING 971
SWIDTH 475 0
DWIDTH 15 0
BBX 1 1 0 0
BITMAP
00
ENDCHAR
STARTCHAR omicrontonos
ENCODING 972
SWIDTH 475 0
DWIDTH 15 0
BBX 1 1 0 0
BITMAP
00
ENDCHAR
STARTCHAR upsilontonos
ENCODING 973
SWIDTH 475 0
DWIDTH 15 0
BBX 1 1 0 0
BITMAP
00
ENDCHAR
STARTCHAR omegatonos
ENCODING 974
SWIDTH 475 0
DWIDTH 15 0
BBX 1 1 0 0
BITMAP
00
ENDCHAR
STARTCHAR afii10023
ENCODING 1025
SWIDTH 475 0
DWIDTH 15 0
BBX 1 1 0 0
BITMAP
00
ENDCHAR
STARTCHAR afii10051
ENCODING 1026
SWIDTH 475 0
DWIDTH 15 0
BBX 1 1 0 0
BITMAP
00
ENDCHAR
STARTCHAR afii10052
ENCODING 1027
SWIDTH 475 0
DWIDTH 15 0
BBX 1 1 0 0
BITMAP
00
ENDCHAR
STARTCHAR afii10053
ENCODING 1028
SWIDTH 475 0
DWIDTH 15 0
BBX 1 1 0 0
BITMAP
00
ENDCHAR
STARTCHAR afii10054
ENCODING 1029
SWIDTH 475 0
DWIDTH 15 0
BBX 1 1 0 0
BITMAP
00
ENDCHAR
STARTCHAR afii10055
ENCODING 1030
SWIDTH 475 0
DWIDTH 15 0
BBX 1 1 0 0
BITMAP
00
ENDCHAR
STARTCHAR afii10056
ENCODING 1031
SWIDTH 475 0
DWIDTH 15 0
BBX 1 1 0 0
BITMAP
00
ENDCHAR
STARTCHAR afii10057
ENCODING 1032
SWIDTH 475 0
DWIDTH 15 0
BBX 1 1 0 0
BITMAP
00
ENDCHAR
STARTCHAR afii10058
ENCODING 1033
SWIDTH 475 0
DWIDTH 15 0
BBX 1 1 0 0
BITMAP
00
ENDCHAR
STARTCHAR afii10059
ENCODING 1034
SWIDTH 475 0
DWIDTH 15 0
BBX 1 1 0 0
BITMAP
00
ENDCHAR
STARTCHAR afii10060
ENCODING 1035
SWIDTH 475 0
DWIDTH 15 0
BBX 1 1 0 0
BITMAP
00
ENDCHAR
STARTCHAR afii10061
ENCODING 1036
SWIDTH 475 0
DWIDTH 15 0
BBX 1 1 0 0
BITMAP
00
ENDCHAR
STARTCHAR afii10062
ENCODING 1038
SWIDTH 475 0
DWIDTH 15 0
BBX 1 1 0 0
BITMAP
00
ENDCHAR
STARTCHAR afii10145
ENCODING 1039
SWIDTH 475 0
DWIDTH 15 0
BBX 1 1 0 0
BITMAP
00
ENDCHAR
STARTCHAR afii10017
ENCODING 1040
SWIDTH 475 0
DWIDTH 15 0
BBX 1 1 0 0
BITMAP
00
ENDCHAR
STARTCHAR afii10018
ENCODING 1041
SWIDTH 475 0
DWIDTH 15 0
BBX 1 1 0 0
BITMAP
00
ENDCHAR
STARTCHAR afii10019
ENCODING 1042
SWIDTH 475 0
DWIDTH 15 0
BBX 1 1 0 0
BITMAP
00
ENDCHAR
STARTCHAR afii10020
ENCODING 1043
SWIDTH 475 0
DWIDTH 15 0
BBX 1 1 0 0
BITMAP
00
ENDCHAR
STARTCHAR afii10021
ENCODING 1044
SWIDTH 475 0
DWIDTH 15 0
BBX 1 1 0 0
BITMAP
00
ENDCHAR
STARTCHAR afii10022
ENCODING 1045
SWIDTH 475 0
DWIDTH 15 0
BBX 1 1 0 0
BITMAP
00
ENDCHAR
STARTCHAR afii10024
ENCODING 1046
SWIDTH 475 0
DWIDTH 15 0
BBX 1 1 0 0
BITMAP
00
ENDCHAR
STARTCHAR afii10025
ENCODING 1047
SWIDTH 475 0
DWIDTH 15 0
BBX 1 1 0 0
BITMAP
00
ENDCHAR
STARTCHAR afii10026
ENCODING 1048
SWIDTH 475 0
DWIDTH 15 0
BBX 1 1 0 0
BITMAP
00
ENDCHAR
STARTCHAR afii10027
ENCODING 1049
SWIDTH 475 0
DWIDTH 15 0
BBX 1 1 0 0
BITMAP
00
ENDCHAR
STARTCHAR afii10028
ENCODING 1050
SWIDTH 475 0
DWIDTH 15 0
BBX 1 1 0 0
BITMAP
00
ENDCHAR
STARTCHAR afii10029
ENCODING 1051
SWIDTH 475 0
DWIDTH 15 0
BBX 1 1 0 0
BITMAP
00
ENDCHAR
STARTCHAR afii10030
ENCODING 1052
SWIDTH 475 0
DWIDTH 15 0
BBX 1 1 0 0
BITMAP
00
ENDCHAR
STARTCHAR afii10031
ENCODING 1053
SWIDTH 475 0
DWIDTH 15 0
BBX 1 1 0 0
BITMAP
00
ENDCHAR
STARTCHAR afii10032
ENCODING 1054
SWIDTH 475 0
DWIDTH 15 0
BBX 1 1 0 0
BITMAP
00
ENDCHAR
STARTCHAR afii10033
ENCODING 1055
SWIDTH 475 0
DWIDTH 15 0
BBX 1 1 0 0
BITMAP
00
ENDCHAR
STARTCHAR afii10034
ENCODING 1056
SWIDTH 475 0
DWIDTH 15 0
BBX 1 1 0 0
BITMAP
00
ENDCHAR
STARTCHAR afii10035
ENCODING 1057
SWIDTH 475 0
DWIDTH 15 0
BBX 1 1 0 0
BITMAP
00
ENDCHAR
STARTCHAR afii10036
ENCODING 1058
SWIDTH 475 0
DWIDTH 15 0
BBX 1 1 0 0
BITMAP
00
ENDCHAR
STARTCHAR afii10037
ENCODING 1059
SWIDTH 475 0
DWIDTH 15 0
BBX 1 1 0 0
BITMAP
00
ENDCHAR
STARTCHAR afii10038
ENCODING 1060
SWIDTH 475 0
DWIDTH 15 0
BBX 1 1 0 0
BITMAP
00
ENDCHAR
STARTCHAR afii10039
ENCODING 1061
SWIDTH 475 0
DWIDTH 15 0
BBX 1 1 0 0
BITMAP
00
ENDCHAR
STARTCHAR afii10040
ENCODING 1062
SWIDTH 475 0
DWIDTH 15 0
BBX 1 1 0 0
BITMAP
00
ENDCHAR
STARTCHAR afii10041
ENCODING 1063
SWIDTH 475 0
DWIDTH 15 0
BBX 1 1 0 0
BITMAP
00
ENDCHAR
STARTCHAR afii10042
ENCODING 1064
SWIDTH 475 0
DWIDTH 15 0
BBX 1 1 0 0
BITMAP
00
ENDCHAR
STARTCHAR afii10043
ENCODING 1065
SWIDTH 475 0
DWIDTH 15 0
BBX 1 1 0 0
BITMAP
00
ENDCHAR
STARTCHAR afii10044
ENCODING 1066
SWIDTH 475 0
DWIDTH 15 0
BBX 1 1 0 0
BITMAP
00
ENDCHAR
STARTCHAR afii10045
ENCODING 1067
SWIDTH 475 0
DWIDTH 15 0
BBX 1 1 0 0
BITMAP
00
ENDCHAR
STARTCHAR afii10046
ENCODING 1068
SWIDTH 475 0
DWIDTH 15 0
BBX 1 1 0 0
BITMAP
00
ENDCHAR
STARTCHAR afii10047
ENCODING 1069
SWIDTH 475 0
DWIDTH 15 0
BBX 1 1 0 0
BITMAP
00
ENDCHAR
STARTCHAR afii10048
ENCODING 1070
SWIDTH 475 0
DWIDTH 15 0
BBX 1 1 0 0
BITMAP
00
ENDCHAR
STARTCHAR afii10049
ENCODING 1071
SWIDTH 475 0
DWIDTH 15 0
BBX 1 1 0 0
BITMAP
00
ENDCHAR
STARTCHAR afii10065
ENCODING 1072
SWIDTH 475 0
DWIDTH 15 0
BBX 1 1 0 0
BITMAP
00
ENDCHAR
STARTCHAR afii10066
ENCODING 1073
SWIDTH 475 0
DWIDTH 15 0
BBX 1 1 0 0
BITMAP
00
ENDCHAR
STARTCHAR afii10067
ENCODING 1074
SWIDTH 475 0
DWIDTH 15 0
BBX 1 1 0 0
BITMAP
00
ENDCHAR
STARTCHAR afii10068
ENCODING 1075
SWIDTH 475 0
DWIDTH 15 0
BBX 1 1 0 0
BITMAP
00
ENDCHAR
STARTCHAR afii10069
ENCODING 1076
SWIDTH 475 0
DWIDTH 15 0
BBX 1 1 0 0
BITMAP
00
ENDCHAR
STARTCHAR afii10070
ENCODING 1077
SWIDTH 475 0
DWIDTH 15 0
BBX 1 1 0 0
BITMAP
00
ENDCHAR
STARTCHAR afii10072
ENCODING 1078
SWIDTH 475 0
DWIDTH 15 0
BBX 1 1 0 0
BITMAP
00
ENDCHAR
STARTCHAR afii10073
ENCODING 1079
SWIDTH 475 0
DWIDTH 15 0
BBX 1 1 0 0
BITMAP
00
ENDCHAR
STARTCHAR afii10074
ENCODING 1080
SWIDTH 475 0
DWIDTH 15 0
BBX 1 1 0 0
BITMAP
00
ENDCHAR
STARTCHAR afii10075
ENCODING 1081
SWIDTH 475 0
DWIDTH 15 0
BBX 1 1 0 0
BITMAP
00
ENDCHAR
STARTCHAR afii10076
ENCODING 1082
SWIDTH 475 0
DWIDTH 15 0
BBX 1 1 0 0
BITMAP
00
ENDCHAR
STARTCHAR afii10077
ENCODING 1083
SWIDTH 475 0
DWIDTH 15 0
BBX 1 1 0 0
BITMAP
00
ENDCHAR
STARTCHAR afii10078
ENCODING 1084
SWIDTH 475 0
DWIDTH 15 0
BBX 1 1 0 0
BITMAP
00
ENDCHAR
STARTCHAR afii10079
ENCODING 1085
SWIDTH 475 0
DWIDTH 15 0
BBX 1 1 0 0
BITMAP
00
ENDCHAR
STARTCHAR afii10080
ENCODING 1086
SWIDTH 475 0
DWIDTH 15 0
BBX 1 1 0 0
BITMAP
00
ENDCHAR
STARTCHAR afii10081
ENCODING 1087
SWIDTH 475 0
DWIDTH 15 0
BBX 1 1 0 0
BITMAP
00
ENDCHAR
STARTCHAR afii10082
ENCODING 1088
SWIDTH 475 0
DWIDTH 15 0
BBX 1 1 0 0
BITMAP
00
ENDCHAR
STARTCHAR afii10083
ENCODING 1089
SWIDTH 475 0
DWIDTH 15 0
BBX 1 1 0 0
BITMAP
00
ENDCHAR
STARTCHAR afii10084
ENCODING 1090
SWIDTH 475 0
DWIDTH 15 0
BBX 1 1 0 0
BITMAP
00
ENDCHAR
STARTCHAR afii10085
ENCODING 1091
SWIDTH 475 0
DWIDTH 15 0
BBX 1 1 0 0
BITMAP
00
ENDCHAR
STARTCHAR afii10086
ENCODING 1092
SWIDTH 475 0
DWIDTH 15 0
BBX 1 1 0 0
BITMAP
00
ENDCHAR
STARTCHAR afii10087
ENCODING 1093
SWIDTH 475 0
DWIDTH 15 0
BBX 1 1 0 0
BITMAP
00
ENDCHAR
STARTCHAR afii10088
ENCODING 1094
SWIDTH 475 0
DWIDTH 15 0
BBX 1 1 0 0
BITMAP
00
ENDCHAR
STARTCHAR afii10089
ENCODING 1095
SWIDTH 475 0
DWIDTH 15 0
BBX 1 1 0 0
BITMAP
00
ENDCHAR
STARTCHAR afii10090
ENCODING 1096
SWIDTH 475 0
DWIDTH 15 0
BBX 1 1 0 0
BITMAP
00
ENDCHAR
STARTCHAR afii10091
ENCODING 1097
SWIDTH 475 0
DWIDTH 15 0
BBX 1 1 0 0
BITMAP
00
ENDCHAR
STARTCHAR afii10092
ENCODING 1098
SWIDTH 475 0
DWIDTH 15 0
BBX 1 1 0 0
BITMAP
00
ENDCHAR
STARTCHAR afii10093
ENCODING 1099
SWIDTH 475 0
DWIDTH 15 0
BBX 1 1 0 0
BITMAP
00
ENDCHAR
STARTCHAR afii10094
ENCODING 1100
SWIDTH 475 0
DWIDTH 15 0
BBX 1 1 0 0
BITMAP
00
ENDCHAR
STARTCHAR afii10095
ENCODING 1101
SWIDTH 475 0
DWIDTH 15 0
BBX 1 1 0 0
BITMAP
00
ENDCHAR
STARTCHAR afii10096
ENCODING 1102
SWIDTH 475 0
DWIDTH 15 0
BBX 1 1 0 0
BITMAP
00
ENDCHAR
STARTCHAR afii10097
ENCODING 1103
SWIDTH 475 0
DWIDTH 15 0
BBX 1 1 0 0
BITMAP
00
ENDCHAR
STARTCHAR afii10071
ENCODING 1105
SWIDTH 475 0
DWIDTH 15 0
BBX 1 1 0 0
BITMAP
00
ENDCHAR
STARTCHAR afii10099
ENCODING 1106
SWIDTH 475 0
DWIDTH 15 0
BBX 1 1 0 0
BITMAP
00
ENDCHAR
STARTCHAR afii10100
ENCODING 1107
SWIDTH 475 0
DWIDTH 15 0
BBX 1 1 0 0
BITMAP
00
ENDCHAR
STARTCHAR afii10101
ENCODING 1108
SWIDTH 475 0
DWIDTH 15 0
BBX 1 1 0 0
BITMAP
00
ENDCHAR
STARTCHAR afii10102
ENCODING 1109
SWIDTH 475 0
DWIDTH 15 0
BBX 1 1 0 0
BITMAP
00
ENDCHAR
STARTCHAR afii10103
ENCODING 1110
SWIDTH 475 0
DWIDTH 15 0
BBX 1 1 0 0
BITMAP
00
ENDCHAR
STARTCHAR afii10104
ENCODING 1111
SWIDTH 475 0
DWIDTH 15 0
BBX 1 1 0 0
BITMAP
00
ENDCHAR
STARTCHAR afii10105
ENCODING 1112
SWIDTH 475 0
DWIDTH 15 0
BBX 1 1 0 0
BITMAP
00
ENDCHAR
STARTCHAR afii10106
ENCODING 1113
SWIDTH 475 0
DWIDTH 15 0
BBX 1 1 0 0
BITMAP
00
ENDCHAR
STARTCHAR afii10107
ENCODING 1114
SWIDTH 475 0
DWIDTH 15 0
BBX 1 1 0 0
BITMAP
00
ENDCHAR
STARTCHAR afii10108
ENCODING 1115
SWIDTH 475 0
DWIDTH 15 0
BBX 1 1 0 0
BITMAP
00
ENDCHAR
STARTCHAR afii10109
ENCODING 1116
SWIDTH 475 0
DWIDTH 15 0
BBX 1 1 0 0
BITMAP
00
ENDCHAR
STARTCHAR afii10110
ENCODING 1118
SWIDTH 475 0
DWIDTH 15 0
BBX 1 1 0 0
BITMAP
00
ENDCHAR
STARTCHAR afii10193
ENCODING 1119
SWIDTH 475 0
DWIDTH 15 0
BBX 1 1 0 0
BITMAP
00
ENDCHAR
STARTCHAR afii10050
ENCODING 1168
SWIDTH 475 0
DWIDTH 15 0
BBX 1 1 0 0
BITMAP
00
ENDCHAR
STARTCHAR afii10098
ENCODING 1169
SWIDTH 475 0
DWIDTH 15 0
BBX 1 1 0 0
BITMAP
00
ENDCHAR
STARTCHAR Wgrave
ENCODING 7808
SWIDTH 475 0
DWIDTH 15 0
BBX 1 1 0 0
BITMAP
00
ENDCHAR
STARTCHAR wgrave
ENCODING 7809
SWIDTH 475 0
DWIDTH 15 0
BBX 1 1 0 0
BITMAP
00
ENDCHAR
STARTCHAR Wacute
ENCODING 7810
SWIDTH 475 0
DWIDTH 15 0
BBX 1 1 0 0
BITMAP
00
ENDCHAR
STARTCHAR wacute
ENCODING 7811
SWIDTH 475 0
DWIDTH 15 0
BBX 1 1 0 0
BITMAP
00
ENDCHAR
STARTCHAR Wdieresis
ENCODING 7812
SWIDTH 475 0
DWIDTH 15 0
BBX 1 1 0 0
BITMAP
00
ENDCHAR
STARTCHAR wdieresis
ENCODING 7813
SWIDTH 475 0
DWIDTH 15 0
BBX 1 1 0 0
BITMAP
00
ENDCHAR
STARTCHAR Ygrave
ENCODING 7922
SWIDTH 475 0
DWIDTH 15 0
BBX 1 1 0 0
BITMAP
00
ENDCHAR
STARTCHAR ygrave
ENCODING 7923
SWIDTH 475 0
DWIDTH 15 0
BBX 1 1 0 0
BITMAP
00
ENDCHAR
STARTCHAR endash
ENCODING 8211
SWIDTH 475 0
DWIDTH 15 0
BBX 1 1 0 0
BITMAP
00
ENDCHAR
STARTCHAR emdash
ENCODING 8212
SWIDTH 475 0
DWIDTH 15 0
BBX 1 1 0 0
BITMAP
00
ENDCHAR
STARTCHAR afii00208
ENCODING 8213
SWIDTH 475 0
DWIDTH 15 0
BBX 1 1 0 0
BITMAP
00
ENDCHAR
STARTCHAR underscoredbl
ENCODING 8215
SWIDTH 475 0
DWIDTH 15 0
BBX 1 1 0 0
BITMAP
00
ENDCHAR
STARTCHAR quoteleft
ENCODING 8216
SWIDTH 475 0
DWIDTH 15 0
BBX 4 10 6 13
BITMAP
10
70
F0
C0
C0
E0
E0
E0
E0
E0
ENDCHAR
STARTCHAR quoteright
ENCODING 8217
SWIDTH 475 0
DWIDTH 15 0
BBX 5 10 5 13
BITMAP
38
38
38
38
38
18
18
30
F0
70
ENDCHAR
STARTCHAR quotesinglbase
ENCODING 8218
SWIDTH 475 0
DWIDTH 15 0
BBX 1 1 0 0
BITMAP
00
ENDCHAR
STARTCHAR quotereversed
ENCODING 8219
SWIDTH 475 0
DWIDTH 15 0
BBX 1 1 0 0
BITMAP
00
ENDCHAR
STARTCHAR quotedblleft
ENCODING 8220
SWIDTH 475 0
DWIDTH 15 0
BBX 11 10 3 13
BITMAP
1020
71C0
F1E0
C180
C300
E1C0
E1C0
E1C0
E1C0
E1C0
ENDCHAR
STARTCHAR quotedblright
ENCODING 8221
SWIDTH 475 0
DWIDTH 15 0
BBX 12 10 2 13
BITMAP
38E0
38E0
38E0
38E0
38E0
1830
1860
3060
F1E0
70E0
ENDCHAR
STARTCHAR quotedblbase
ENCODING 8222
SWIDTH 475 0
DWIDTH 15 0
BBX 1 1 0 0
BITMAP
00
ENDCHAR
STARTCHAR dagger
ENCODING 8224
SWIDTH 475 0
DWIDTH 15 0
BBX 1 1 0 0
BITMAP
00
ENDCHAR
STARTCHAR daggerdbl
ENCODING 8225
SWIDTH 475 0
DWIDTH 15 0
BBX 1 1 0 0
BITMAP
00
ENDCHAR
STARTCHAR bullet
ENCODING 8226
SWIDTH 475 0
DWIDTH 15 0
BBX 5 5 5 9
BITMAP
20
78
F8
F8
78
ENDCHAR
STARTCHAR ellipsis
ENCODING 8230
SWIDTH 475 0
DWIDTH 15 0
BBX 1 1 0 0
BITMAP
00
ENDCHAR
STARTCHAR perthousand
ENCODING 8240
SWIDTH 475 0
DWIDTH 15 0
BBX 1 1 0 0
BITMAP
00
ENDCHAR
STARTCHAR minute
ENCODING 8242
SWIDTH 475 0
DWIDTH 15 0
BBX 1 1 0 0
BITMAP
00
ENDCHAR
STARTCHAR second
ENCODING 8243
SWIDTH 475 0
DWIDTH 15 0
BBX 1 1 0 0
BITMAP
00
ENDCHAR
STARTCHAR guilsinglleft
ENCODING 8249
SWIDTH 475 0
DWIDTH 15 0
BBX 1 1 0 0
BITMAP
00
ENDCHAR
STARTCHAR guilsinglright
ENCODING 8250
SWIDTH 475 0
DWIDTH 15 0
BBX 1 1 0 0
BITMAP
00
ENDCHAR
STARTCHAR exclamdbl
ENCODING 8252
SWIDTH 475 0
DWIDTH 15 0
BBX 1 1 0 0
BITMAP
00
ENDCHAR
STARTCHAR uni203E
ENCODING 8254
SWIDTH 475 0
DWIDTH 15 0
BBX 1 1 0 0
BITMAP
00
ENDCHAR
STARTCHAR fraction
ENCODING 8260
SWIDTH 475 0
DWIDTH 15 0
BBX 1 1 0 0
BITMAP
00
ENDCHAR
STARTCHAR uni207F
ENCODING 8319
SWIDTH 475 0
DWIDTH 15 0
BBX 1 1 0 0
BITMAP
00
ENDCHAR
STARTCHAR franc
ENCODING 8355
SWIDTH 475 0
DWIDTH 15 0
BBX 1 1 0 0
BITMAP
00
ENDCHAR
STARTCHAR lira
ENCODING 8356
SWIDTH 475 0
DWIDTH 15 0
BBX 1 1 0 0
BITMAP
00
ENDCHAR
STARTCHAR peseta
ENCODING 8359
SWIDTH 475 0
DWIDTH 15 0
BBX 1 1 0 0
BITMAP
00
ENDCHAR
STARTCHAR Euro
ENCODING 8364
SWIDTH 475 0
DWIDTH 15 0
BBX 1 1 0 0
BITMAP
00
ENDCHAR
STARTCHAR afii61248
ENCODING 8453
SWIDTH 475 0
DWIDTH 15 0
BBX 1 1 0 0
BITMAP
00
ENDCHAR
STARTCHAR afii61289
ENCODING 8467
SWIDTH 475 0
DWIDTH 15 0
BBX 1 1 0 0
BITMAP
00
ENDCHAR
STARTCHAR afii61352
ENCODING 8470
SWIDTH 475 0
DWIDTH 15 0
BBX 1 1 0 0
BITMAP
00
ENDCHAR
STARTCHAR trademark
ENCODING 8482
SWIDTH 475 0
DWIDTH 15 0
BBX 14 9 1 11
BITMAP
FD98
FDDC
B598
B568
3178
3168
3118
7B9C
FB9C
ENDCHAR
STARTCHAR Omega
ENCODING 8486
SWIDTH 475 0
DWIDTH 15 0
BBX 1 1 0 0
BITMAP
00
ENDCHAR
STARTCHAR estimated
ENCODING 8494
SWIDTH 475 0
DWIDTH 15 0
BBX 1 1 0 0
BITMAP
00
ENDCHAR
STARTCHAR oneeighth
ENCODING 8539
SWIDTH 475 0
DWIDTH 15 0
BBX 1 1 0 0
BITMAP
00
ENDCHAR
STARTCHAR threeeighths
ENCODING 8540
SWIDTH 475 0
DWIDTH 15 0
BBX 1 1 0 0
BITMAP
00
ENDCHAR
STARTCHAR fiveeighths
ENCODING 8541
SWIDTH 475 0
DWIDTH 15 0
BBX 1 1 0 0
BITMAP
00
ENDCHAR
STARTCHAR seveneighths
ENCODING 8542
SWIDTH 475 0
DWIDTH 15 0
BBX 1 1 0 0
BITMAP
00
ENDCHAR
STARTCHAR arrowleft
ENCODING 8592
SWIDTH 475 0
DWIDTH 15 0
BBX 1 1 0 0
BITMAP
00
ENDCHAR
STARTCHAR arrowup
ENCODING 8593
SWIDTH 475 0
DWIDTH 15 0
BBX 1 1 0 0
BITMAP
00
ENDCHAR
STARTCHAR arrowright
ENCODING 8594
SWIDTH 475 0
DWIDTH 15 0
BBX 1 1 0 0
BITMAP
00
ENDCHAR
STARTCHAR arrowdown
ENCODING 8595
SWIDTH 475 0
DWIDTH 15 0
BBX 1 1 0 0
BITMAP
00
ENDCHAR
STARTCHAR arrowboth
ENCODING 8596
SWIDTH 475 0
DWIDTH 15 0
BBX 1 1 0 0
BITMAP
00
ENDCHAR
STARTCHAR arrowupdn
ENCODING 8597
SWIDTH 475 0
DWIDTH 15 0
BBX 1 1 0 0
BITMAP
00
ENDCHAR
STARTCHAR arrowupdnbse
ENCODING 8616
SWIDTH 475 0
DWIDTH 15 0
BBX 1 1 0 0
BITMAP
00
ENDCHAR
STARTCHAR partialdiff
ENCODING 8706
SWIDTH 475 0
DWIDTH 15 0
BBX 1 1 0 0
BITMAP
00
ENDCHAR
STARTCHAR Delta
ENCODING 8710
SWIDTH 475 0
DWIDTH 15 0
BBX 1 1 0 0
BITMAP
00
ENDCHAR
STARTCHAR product
ENCODING 8719
SWIDTH 475 0
DWIDTH 15 0
BBX 1 1 0 0
BITMAP
00
ENDCHAR
STARTCHAR summation
ENCODING 8721
SWIDTH 475 0
DWIDTH 15 0
BBX 1 1 0 0
BITMAP
00
ENDCHAR
STARTCHAR minus
ENCODING 8722
SWIDTH 475 0
DWIDTH 15 0
BBX 1 1 0 0
BITMAP
00
ENDCHAR
STARTCHAR fraction.dup4
ENCODING 8725
SWIDTH 475 0
DWIDTH 15 0
BBX 1 1 0 0
BITMAP
00
ENDCHAR
STARTCHAR periodcentered.dup5
ENCODING 8729
SWIDTH 475 0
DWIDTH 15 0
BBX 1 1 0 0
BITMAP
00
ENDCHAR
STARTCHAR radical
ENCODING 8730
SWIDTH 475 0
DWIDTH 15 0
BBX 1 1 0 0
BITMAP
00
ENDCHAR
STARTCHAR infinity
ENCODING 8734
SWIDTH 475 0
DWIDTH 15 0
BBX 1 1 0 0
BITMAP
00
ENDCHAR
STARTCHAR orthogonal
ENCODING 8735
SWIDTH 475 0
DWIDTH 15 0
BBX 1 1 0 0
BITMAP
00
ENDCHAR
STARTCHAR intersection
ENCODING 8745
SWIDTH 475 0
DWIDTH 15 0
BBX 1 1 0 0
BITMAP
00
ENDCHAR
STARTCHAR integral
ENCODING 8747
SWIDTH 475 0
DWIDTH 15 0
BBX 1 1 0 0
BITMAP
00
ENDCHAR
STARTCHAR approxequal
ENCODING 8776
SWIDTH 475 0
DWIDTH 15 0
BBX 1 1 0 0
BITMAP
00
ENDCHAR
STARTCHAR notequal
ENCODING 8800
SWIDTH 475 0
DWIDTH 15 0
BBX 1 1 0 0
BITMAP
00
ENDCHAR
STARTCHAR equivalence
ENCODING 8801
SWIDTH 475 0
DWIDTH 15 0
BBX 1 1 0 0
BITMAP
00
ENDCHAR
STARTCHAR lessequal
ENCODING 8804
SWIDTH 475 0
DWIDTH 15 0
BBX 1 1 0 0
BITMAP
00
ENDCHAR
STARTCHAR greaterequal
ENCODING 8805
SWIDTH 475 0
DWIDTH 15 0
BBX 1 1 0 0
BITMAP
00
ENDCHAR
STARTCHAR house
ENCODING 8962
SWIDTH 475 0
DWIDTH 15 0
BBX 1 1 0 0
BITMAP
00
ENDCHAR
STARTCHAR revlogicalnot
ENCODING 8976
SWIDTH 475 0
DWIDTH 15 0
BBX 1 1 0 0
BITMAP
00
ENDCHAR
STARTCHAR integraltp
ENCODING 8992
SWIDTH 475 0
DWIDTH 15 0
BBX 1 1 0 0
BITMAP
00
ENDCHAR
STARTCHAR integralbt
ENCODING 8993
SWIDTH 475 0
DWIDTH 15 0
BBX 1 1 0 0
BITMAP
00
ENDCHAR
STARTCHAR SF100000
ENCODING 9472
SWIDTH 475 0
DWIDTH 15 0
BBX 1 1 0 0
BITMAP
00
ENDCHAR
STARTCHAR SF110000
ENCODING 9474
SWIDTH 475 0
DWIDTH 15 0
BBX 1 1 0 0
BITMAP
00
ENDCHAR
STARTCHAR SF010000
ENCODING 9484
SWIDTH 475 0
DWIDTH 15 0
BBX 1 1 0 0
BITMAP
00
ENDCHAR
STARTCHAR SF030000
ENCODING 9488
SWIDTH 475 0
DWIDTH 15 0
BBX 1 1 0 0
BITMAP
00
ENDCHAR
STARTCHAR SF020000
ENCODING 9492
SWIDTH 475 0
DWIDTH 15 0
BBX 1 1 0 0
BITMAP
00
ENDCHAR
STARTCHAR SF040000
ENCODING 9496
SWIDTH 475 0
DWIDTH 15 0
BBX 1 1 0 0
BITMAP
00
ENDCHAR
STARTCHAR SF080000
ENCODING 9500
SWIDTH 475 0
DWIDTH 15 0
BBX 1 1 0 0
BITMAP
00
ENDCHAR
STARTCHAR SF090000
ENCODING 9508
SWIDTH 475 0
DWIDTH 15 0
BBX 1 1 0 0
BITMAP
00
ENDCHAR
STARTCHAR SF060000
ENCODING 9516
SWIDTH 475 0
DWIDTH 15 0
BBX 1 1 0 0
BITMAP
00
ENDCHAR
STARTCHAR SF070000
ENCODING 9524
SWIDTH 475 0
DWIDTH 15 0
BBX 1 1 0 0
BITMAP
00
ENDCHAR
STARTCHAR SF050000
ENCODING 9532
SWIDTH 475 0
DWIDTH 15 0
BBX 1 1 0 0
BITMAP
00
ENDCHAR
STARTCHAR SF430000
ENCODING 9552
SWIDTH 475 0
DWIDTH 15 0
BBX 1 1 0 0
BITMAP
00
ENDCHAR
STARTCHAR SF240000
ENCODING 9553
SWIDTH 475 0
DWIDTH 15 0
BBX 1 1 0 0
BITMAP
00
ENDCHAR
STARTCHAR SF510000
ENCODING 9554
SWIDTH 475 0
DWIDTH 15 0
BBX 1 1 0 0
BITMAP
00
ENDCHAR
STARTCHAR SF520000
ENCODING 9555
SWIDTH 475 0
DWIDTH 15 0
BBX 1 1 0 0
BITMAP
00
ENDCHAR
STARTCHAR SF390000
ENCODING 9556
SWIDTH 475 0
DWIDTH 15 0
BBX 1 1 0 0
BITMAP
00
ENDCHAR
STARTCHAR SF220000
ENCODING 9557
SWIDTH 475 0
DWIDTH 15 0
BBX 1 1 0 0
BITMAP
00
ENDCHAR
STARTCHAR SF210000
ENCODING 9558
SWIDTH 475 0
DWIDTH 15 0
BBX 1 1 0 0
BITMAP
00
ENDCHAR
STARTCHAR SF250000
ENCODING 9559
SWIDTH 475 0
DWIDTH 15 0
BBX 1 1 0 0
BITMAP
00
ENDCHAR
STARTCHAR SF500000
ENCODING 9560
SWIDTH 475 0
DWIDTH 15 0
BBX 1 1 0 0
BITMAP
00
ENDCHAR
STARTCHAR SF490000
ENCODING 9561
SWIDTH 475 0
DWIDTH 15 0
BBX 1 1 0 0
BITMAP
00
ENDCHAR
STARTCHAR SF380000
ENCODING 9562
SWIDTH 475 0
DWIDTH 15 0
BBX 1 1 0 0
BITMAP
00
ENDCHAR
STARTCHAR SF280000
ENCODING 9563
SWIDTH 475 0
DWIDTH 15 0
BBX 1 1 0 0
BITMAP
00
ENDCHAR
STARTCHAR SF270000
ENCODING 9564
SWIDTH 475 0
DWIDTH 15 0
BBX 1 1 0 0
BITMAP
00
ENDCHAR
STARTCHAR SF260000
ENCODING 9565
SWIDTH 475 0
DWIDTH 15 0
BBX 1 1 0 0
BITMAP
00
ENDCHAR
STARTCHAR SF360000
ENCODING 9566
SWIDTH 475 0
DWIDTH 15 0
BBX 1 1 0 0
BITMAP
00
ENDCHAR
STARTCHAR SF370000
ENCODING 9567
SWIDTH 475 0
DWIDTH 15 0
BBX 1 1 0 0
BITMAP
00
ENDCHAR
STARTCHAR SF420000
ENCODING 9568
SWIDTH 475 0
DWIDTH 15 0
BBX 1 1 0 0
BITMAP
00
ENDCHAR
STARTCHAR SF190000
ENCODING 9569
SWIDTH 475 0
DWIDTH 15 0
BBX 1 1 0 0
BITMAP
00
ENDCHAR
STARTCHAR SF200000
ENCODING 9570
SWIDTH 475 0
DWIDTH 15 0
BBX 1 1 0 0
BITMAP
00
ENDCHAR
STARTCHAR SF230000
ENCODING 9571
SWIDTH 475 0
DWIDTH 15 0
BBX 1 1 0 0
BITMAP
00
ENDCHAR
STARTCHAR SF470000
ENCODING 9572
SWIDTH 475 0
DWIDTH 15 0
BBX 1 1 0 0
BITMAP
00
ENDCHAR
STARTCHAR SF480000
ENCODING 9573
SWIDTH 475 0
DWIDTH 15 0
BBX 1 1 0 0
BITMAP
00
ENDCHAR
STARTCHAR SF410000
ENCODING 9574
SWIDTH 475 0
DWIDTH 15 0
BBX 1 1 0 0
BITMAP
00
ENDCHAR
STARTCHAR SF450000
ENCODING 9575
SWIDTH 475 0
DWIDTH 15 0
BBX 1 1 0 0
BITMAP
00
ENDCHAR
STARTCHAR SF460000
ENCODING 9576
SWIDTH 475 0
DWIDTH 15 0
BBX 1 1 0 0
BITMAP
00
ENDCHAR
STARTCHAR SF400000
ENCODING 9577
SWIDTH 475 0
DWIDTH 15 0
BBX 1 1 0 0
BITMAP
00
ENDCHAR
STARTCHAR SF540000
ENCODING 9578
SWIDTH 475 0
DWIDTH 15 0
BBX 1 1 0 0
BITMAP
00
ENDCHAR
STARTCHAR SF530000
ENCODING 9579
SWIDTH 475 0
DWIDTH 15 0
BBX 1 1 0 0
BITMAP
00
ENDCHAR
STARTCHAR SF440000
ENCODING 9580
SWIDTH 475 0
DWIDTH 15 0
BBX 1 1 0 0
BITMAP
00
ENDCHAR
STARTCHAR upblock
ENCODING 9600
SWIDTH 475 0
DWIDTH 15 0
BBX 1 1 0 0
BITMAP
00
ENDCHAR
STARTCHAR dnblock
ENCODING 9604
SWIDTH 475 0
DWIDTH 15 0
BBX 1 1 0 0
BITMAP
00
ENDCHAR
STARTCHAR block
ENCODING 9608
SWIDTH 475 0
DWIDTH 15 0
BBX 1 1 0 0
BITMAP
00
ENDCHAR
STARTCHAR lfblock
ENCODING 9612
SWIDTH 475 0
DWIDTH 15 0
BBX 1 1 0 0
BITMAP
00
ENDCHAR
STARTCHAR rtblock
ENCODING 9616
SWIDTH 475 0
DWIDTH 15 0
BBX 1 1 0 0
BITMAP
00
ENDCHAR
STARTCHAR ltshade
ENCODING 9617
SWIDTH 475 0
DWIDTH 15 0
BBX 1 1 0 0
BITMAP
00
ENDCHAR
STARTCHAR shade
ENCODING 9618
SWIDTH 475 0
DWIDTH 15 0
BBX 1 1 0 0
BITMAP
00
ENDCHAR
STARTCHAR dkshade
ENCODING 9619
SWIDTH 475 0
DWIDTH 15 0
BBX 1 1 0 0
BITMAP
00
ENDCHAR
STARTCHAR filledbox
ENCODING 9632
SWIDTH 475 0
DWIDTH 15 0
BBX 1 1 0 0
BITMAP
00
ENDCHAR
STARTCHAR H22073
ENCODING 9633
SWIDTH 475 0
DWIDTH 15 0
BBX 1 1 0 0
BITMAP
00
ENDCHAR
STARTCHAR H18543
ENCODING 9642
SWIDTH 475 0
DWIDTH 15 0
BBX 1 1 0 0
BITMAP
00
ENDCHAR
STARTCHAR H18551
ENCODING 9643
SWIDTH 475 0
DWIDTH 15 0
BBX 1 1 0 0
BITMAP
00
ENDCHAR
STARTCHAR filledrect
ENCODING 9644
SWIDTH 475 0
DWIDTH 15 0
BBX 1 1 0 0
BITMAP
00
ENDCHAR
STARTCHAR triagup
ENCODING 9650
SWIDTH 475 0
DWIDTH 15 0
BBX 1 1 0 0
BITMAP
00
ENDCHAR
STARTCHAR triagrt
ENCODING 9658
SWIDTH 475 0
DWIDTH 15 0
BBX 1 1 0 0
BITMAP
00
ENDCHAR
STARTCHAR triagdn
ENCODING 9660
SWIDTH 475 0
DWIDTH 15 0
BBX 1 1 0 0
BITMAP
00
ENDCHAR
STARTCHAR triaglf
ENCODING 9668
SWIDTH 475 0
DWIDTH 15 0
BBX 1 1 0 0
BITMAP
00
ENDCHAR
STARTCHAR lozenge
ENCODING 9674
SWIDTH 475 0
DWIDTH 15 0
BBX 1 1 0 0
BITMAP
00
ENDCHAR
STARTCHAR circle
ENCODING 9675
SWIDTH 475 0
DWIDTH 15 0
BBX 1 1 0 0
BITMAP
00
ENDCHAR
STARTCHAR H18533
ENCODING 9679
SWIDTH 475 0
DWIDTH 15 0
BBX 1 1 0 0
BITMAP
00
ENDCHAR
STARTCHAR invbullet
ENCODING 9688
SWIDTH 475 0
DWIDTH 15 0
BBX 1 1 0 0
BITMAP
00
ENDCHAR
STARTCHAR invcircle
ENCODING 9689
SWIDTH 475 0
DWIDTH 15 0
BBX 1 1 0 0
BITMAP
00
ENDCHAR
STARTCHAR openbullet
ENCODING 9702
SWIDTH 475 0
DWIDTH 15 0
BBX 1 1 0 0
BITMAP
00
ENDCHAR
STARTCHAR smileface
ENCODING 9786
SWIDTH 475 0
DWIDTH 15 0
BBX 1 1 0 0
BITMAP
00
ENDCHAR
STARTCHAR invsmileface
ENCODING 9787
SWIDTH 475 0
DWIDTH 15 0
BBX 1 1 0 0
BITMAP
00
ENDCHAR
STARTCHAR sun
ENCODING 9788
SWIDTH 475 0
DWIDTH 15 0
BBX 1 1 0 0
BITMAP
00
ENDCHAR
STARTCHAR female
ENCODING 9792
SWIDTH 475 0
DWIDTH 15 0
BBX 1 1 0 0
BITMAP
00
ENDCHAR
STARTCHAR male
ENCODING 9794
SWIDTH 475 0
DWIDTH 15 0
BBX 1 1 0 0
BITMAP
00
ENDCHAR
STARTCHAR spade
ENCODING 9824
SWIDTH 475 0
DWIDTH 15 0
BBX 1 1 0 0
BITMAP
00
ENDCHAR
STARTCHAR club
ENCODING 9827
SWIDTH 475 0
DWIDTH 15 0
BBX 1 1 0 0
BITMAP
00
ENDCHAR
STARTCHAR heart
ENCODING 9829
SWIDTH 475 0
DWIDTH 15 0
BBX 1 1 0 0
BITMAP
00
ENDCHAR
STARTCHAR diamond
ENCODING 9830
SWIDTH 475 0
DWIDTH 15 0
BBX 1 1 0 0
BITMAP
00
ENDCHAR
STARTCHAR musicalnote
ENCODING 9834
SWIDTH 475 0
DWIDTH 15 0
BBX 1 1 0 0
BITMAP
00
ENDCHAR
STARTCHAR musicalnotedbl
ENCODING 9835
SWIDTH 475 0
DWIDTH 15 0
BBX 1 1 0 0
BITMAP
00
ENDCHAR
STARTCHAR uniF001
ENCODING 61441
SWIDTH 475 0
DWIDTH 15 0
BBX 1 1 0 0
BITMAP
00
ENDCHAR
STARTCHAR uniF002
ENCODING 61442
SWIDTH 475 0
DWIDTH 15 0
BBX 1 1 0 0
BITMAP
00
ENDCHAR
STARTCHAR uniF004
ENCODING 61444
SWIDTH 475 0
DWIDTH 15 0
BBX 1 1 0 0
BITMAP
00
ENDCHAR
STARTCHAR uniF005
ENCODING 61445
SWIDTH 475 0
DWIDTH 15 0
BBX 1 1 0 0
BITMAP
00
ENDCHAR
STARTCHAR uniF001.dup6
ENCODING 64257
SWIDTH 475 0
DWIDTH 15 0
BBX 1 1 0 0
BITMAP
00
ENDCHAR
STARTCHAR uniF002.dup7
ENCODING 64258
SWIDTH 475 0
DWIDTH 15 0
BBX 1 1 0 0
BITMAP
00
ENDCHAR
STARTCHAR .notdef
ENCODING -1
SWIDTH 475 0
DWIDTH 15 0
BBX 17 20 0 0
BITMAP
800080
800080
800080
800080
800080
800080
800080
800080
800080
800080
800080
800080
800080
800080
800080
800080
800080
800080
800080
FFFF00
ENDCHAR
STARTCHAR .null
ENCODING -1
SWIDTH 0 0
DWIDTH 0 0
BBX 1 1 0 0
BITMAP
00
ENDCHAR
STARTCHAR nonmarkingreturn
ENCODING -1
SWIDTH 475 0
DWIDTH 15 0
BBX 1 1 0 0
BITMAP
00
ENDCHAR
STARTCHAR glyph155
ENCODING -1
SWIDTH 475 0
DWIDTH 15 0
BBX 1 1 0 0
BITMAP
00
ENDCHAR
ENDFONT
